<svg version="1.1" id="Layer_1" xmlns="http://www.w3.org/2000/svg" xmlns:xlink="http://www.w3.org/1999/xlink" x="0px" y="0px"
	 width="100%" viewBox="0 0 838 292" enable-background="new 0 0 838 292" xml:space="preserve">
<path fill="#010100" opacity="1.000000" stroke="none" 
	d="
M544.000000,293.000000 
	C362.706635,293.000000 181.913284,293.000000 1.059966,293.000000 
	C1.059966,195.728195 1.059966,98.456337 1.059966,1.092243 
	C280.210052,1.092243 559.420166,1.092243 838.815125,1.092243 
	C838.815125,98.333054 838.815125,195.666489 838.815125,293.000000 
	C740.789612,293.000000 642.644775,293.000000 544.000000,293.000000 
M116.911415,268.276428 
	C156.874878,268.307770 196.839523,268.484558 236.800079,268.158875 
	C241.075638,268.124023 245.878983,265.932526 249.463043,263.375580 
	C255.085144,259.364624 255.664841,252.750076 255.661194,246.230515 
	C255.624664,180.954361 255.626358,115.678200 255.583572,50.402054 
	C255.582382,48.605644 255.204208,46.809483 255.098694,44.221478 
	C253.405716,33.512344 246.801300,28.056995 235.259979,28.051983 
	C176.130371,28.026308 117.000748,28.037977 57.871136,28.039268 
	C49.709648,28.039446 41.545017,27.914770 33.387486,28.098576 
	C23.509501,28.321148 16.508291,34.978916 15.517032,44.818523 
	C15.350609,46.470505 15.367714,48.145012 15.367548,49.809116 
	C15.361028,115.268097 15.361902,180.727081 15.365325,246.186066 
	C15.365403,247.684753 15.337621,249.188049 15.438464,250.681381 
	C16.137705,261.035950 23.203192,267.999207 33.585850,268.205536 
	C43.409298,268.400757 53.239410,268.305328 63.066349,268.270172 
	C80.714592,268.207031 98.362648,268.093262 116.911415,268.276428 
M571.845642,221.333649 
	C589.330078,199.319427 589.378540,171.592682 571.796814,150.192245 
	C569.815918,147.781143 569.589722,146.420258 571.843567,144.015884 
	C586.798096,128.062653 590.644043,109.577560 581.777588,89.613838 
	C572.871277,69.560280 556.741821,58.934982 534.582458,58.493389 
	C518.930359,58.181477 503.266388,58.503651 487.609802,58.341511 
	C483.947113,58.303585 482.700897,59.435780 482.694916,63.186424 
	C482.603424,120.821793 482.415680,178.457108 482.128296,236.091843 
	C482.109436,239.878006 483.389008,240.923218 487.031769,240.878510 
	C501.022095,240.706757 515.015991,240.758255 529.008179,240.818298 
	C546.009827,240.891251 560.109497,234.564102 571.845642,221.333649 
M363.000153,253.482727 
	C364.095459,255.371857 365.190735,257.260956 366.751312,259.952606 
	C375.159698,251.384888 381.860931,244.709976 388.282654,237.776184 
	C388.924591,237.083038 388.388885,234.354813 387.508270,233.360901 
	C383.867798,229.252075 380.012634,225.308136 375.978149,221.583282 
	C373.580597,219.369736 373.949432,217.525482 374.795410,214.620865 
	C377.099884,206.708511 380.103882,198.608643 380.261566,190.532913 
	C380.817474,162.059647 380.591095,133.560242 380.099915,105.080452 
	C379.627533,77.693459 356.653015,55.557384 329.391388,55.466972 
	C302.147369,55.376621 278.507294,77.976288 278.101746,105.215935 
	C277.670288,134.196747 277.490326,163.192825 277.911560,192.171906 
	C278.425140,227.499100 311.861694,251.092896 345.585846,240.641876 
	C347.302429,240.109909 350.125641,240.856369 351.533783,242.060150 
	C355.444733,245.403473 358.880463,249.302689 363.000153,253.482727 
M661.171143,56.235943 
	C627.685669,51.924858 601.125183,75.082031 600.961670,108.865944 
	C600.827087,136.671387 600.681641,164.478806 600.869019,192.283142 
	C601.014771,213.910187 616.328430,234.314392 636.799072,240.949219 
	C669.687195,251.608704 703.300537,226.535629 703.625549,190.684799 
	C703.877563,162.882675 703.653931,135.071198 703.248352,107.269623 
	C702.876892,81.806374 686.865295,62.366959 661.171143,56.235943 
M732.521240,122.051407 
	C734.491394,127.887611 736.232544,133.814972 738.506958,139.530121 
	C740.210876,143.811569 740.121887,147.715103 738.708801,152.072510 
	C729.824280,179.469177 721.140991,206.931091 712.408936,234.377075 
	C711.823059,236.218323 711.383362,238.106033 710.647400,240.811401 
	C720.156921,240.811401 728.926636,240.670090 737.687622,240.884171 
	C740.978699,240.964569 742.471558,239.782623 743.247803,236.668640 
	C745.421875,227.946503 747.806763,219.276581 750.139465,210.594406 
	C753.447266,198.282578 756.782715,185.978180 760.444092,172.419937 
	C761.286499,175.300797 761.783630,176.868698 762.203430,178.457062 
	C766.712830,195.519119 771.187744,212.590332 775.718323,229.646744 
	C778.686768,240.822006 778.720703,240.812973 790.346619,240.812973 
	C796.745728,240.812973 803.144836,240.812988 810.183960,240.812988 
	C809.428650,238.076218 809.005066,236.332169 808.467407,234.624039 
	C799.768372,206.991821 791.114563,179.345047 782.280640,151.755936 
	C780.946411,147.589096 780.899597,143.866562 782.350037,139.686554 
	C791.028748,114.676857 799.485352,89.590073 807.989746,64.520073 
	C808.592285,62.743828 808.981140,60.895081 809.651978,58.401161 
	C800.111511,58.401161 791.471802,58.531857 782.839600,58.335148 
	C779.508972,58.259251 778.131470,59.625675 777.331421,62.678116 
	C775.305786,70.406456 773.027466,78.068985 770.820862,85.749413 
	C767.532593,97.194679 764.218994,108.632652 760.604126,121.154556 
	C759.776672,118.585190 759.278015,117.188667 758.876038,115.764854 
	C754.262085,99.421684 749.697327,83.064529 745.046448,66.731911 
	C742.300964,57.090603 743.871521,58.511513 734.149780,58.412548 
	C726.738098,58.337097 719.325073,58.397560 710.951294,58.397560 
	C718.308533,80.109909 725.289185,100.710976 732.521240,122.051407 
M449.330750,134.282043 
	C435.692871,134.283386 422.054291,134.359024 408.417572,134.233185 
	C405.061798,134.202209 403.583954,135.195999 403.673584,138.759415 
	C403.857574,146.072723 403.835175,153.395935 403.684998,160.710693 
	C403.619568,163.896927 404.674683,165.107193 407.983521,165.077560 
	C422.950745,164.943481 437.920746,164.929718 452.887573,165.082932 
	C456.359192,165.118439 457.062286,163.674789 456.983826,160.615952 
	C456.817535,154.133926 456.936859,147.644638 456.934692,141.158325 
	C456.932434,134.337311 456.930237,134.337311 449.330750,134.282043 
z"/>
<path fill="#E2601C" opacity="1.000000" stroke="none" 
	d="
M116.010773,268.000671 
	C98.362648,268.093262 80.714592,268.207031 63.066349,268.270172 
	C53.239410,268.305328 43.409298,268.400757 33.585850,268.205536 
	C23.203192,267.999207 16.137705,261.035950 15.438464,250.681381 
	C15.337621,249.188049 15.365403,247.684753 15.365325,246.186066 
	C15.361902,180.727081 15.361028,115.268097 15.367548,49.809116 
	C15.367714,48.145012 15.350609,46.470505 15.517032,44.818523 
	C16.508291,34.978916 23.509501,28.321148 33.387486,28.098576 
	C41.545017,27.914770 49.709648,28.039446 57.871136,28.039268 
	C117.000748,28.037977 176.130371,28.026308 235.259979,28.051983 
	C246.801300,28.056995 253.405716,33.512344 254.843414,44.973175 
	C254.394745,47.695740 254.041489,49.665997 254.033859,51.637585 
	C253.983582,64.609909 254.007950,77.582512 254.007736,90.555023 
	C254.007553,101.631729 253.925140,101.784920 244.409164,96.674843 
	C221.275085,84.251846 198.272614,71.583366 175.113968,59.206818 
	C167.534348,55.156086 159.636765,51.700359 151.575043,47.868446 
	C150.365799,47.024166 149.500320,46.237167 148.561249,45.550858 
	C136.858765,36.998268 135.667450,36.929226 124.217522,45.682373 
	C111.786682,55.185394 105.454124,68.808914 101.211464,83.413902 
	C95.803909,102.028946 94.966873,121.111572 96.421547,140.325302 
	C97.185768,150.419327 98.280624,160.488312 99.183632,170.115097 
	C97.151192,170.674362 94.996101,170.655365 93.740738,171.708694 
	C82.705246,180.968063 75.506493,192.472275 74.874260,207.190735 
	C74.417381,217.826874 74.557098,228.491180 74.582764,239.142548 
	C74.586273,240.600647 75.470947,242.056625 76.127518,243.770615 
	C77.231506,244.719482 78.088150,245.534271 79.090164,246.084213 
	C89.722351,251.919662 100.414650,257.647034 110.992432,263.578857 
	C112.893829,264.645142 114.349380,266.506439 116.010773,268.000671 
z"/>
<path fill="#C35520" opacity="1.000000" stroke="none" 
	d="
M116.461090,268.138550 
	C114.349380,266.506439 112.893829,264.645142 110.992432,263.578857 
	C100.414650,257.647034 89.722351,251.919662 79.090164,246.084213 
	C78.088150,245.534271 77.231506,244.719482 76.512650,243.619568 
	C83.521141,240.612000 90.610809,238.568390 97.044930,235.252670 
	C103.164764,232.098892 106.450195,226.488495 105.963722,219.161865 
	C105.774734,216.315643 105.932846,213.446381 105.932846,210.587631 
	C111.508514,216.238983 118.924454,219.516281 118.546852,229.201477 
	C118.250381,236.805923 126.108604,242.440750 133.995163,242.660767 
	C143.260590,242.919266 152.501556,237.180756 153.901962,229.856247 
	C154.327408,227.630966 153.362152,225.139816 153.033859,222.770432 
	C153.173630,223.197571 153.313400,223.624710 153.453171,224.051849 
	C157.298508,219.975571 161.143829,215.899292 164.700287,212.129242 
	C164.347229,219.956085 162.903305,228.657837 171.098267,234.829224 
	C178.166245,240.151886 186.091644,242.968323 195.712982,244.466125 
	C195.712982,233.471939 195.572723,223.188492 195.745361,212.910294 
	C196.014816,196.866348 189.744980,183.784698 178.030731,173.172485 
	C176.598923,171.875381 174.354019,171.475830 171.878174,170.395020 
	C172.954880,161.046738 174.731842,150.693466 175.238831,140.278366 
	C176.849060,107.199051 175.338531,74.769508 151.884583,47.972523 
	C159.636765,51.700359 167.534348,55.156086 175.113968,59.206818 
	C198.272614,71.583366 221.275085,84.251846 244.409164,96.674843 
	C253.925140,101.784920 254.007553,101.631729 254.007736,90.555023 
	C254.007950,77.582512 253.983582,64.609909 254.033859,51.637585 
	C254.041489,49.665997 254.394745,47.695740 254.794983,45.369034 
	C255.204208,46.809483 255.582382,48.605644 255.583572,50.402054 
	C255.626358,115.678200 255.624664,180.954361 255.661194,246.230515 
	C255.664841,252.750076 255.085144,259.364624 249.463043,263.375580 
	C245.878983,265.932526 241.075638,268.124023 236.800079,268.158875 
	C196.839523,268.484558 156.874878,268.307770 116.461090,268.138550 
z"/>
<path fill="#E05F1B" opacity="1.000000" stroke="none" 
	d="
M571.613892,221.601807 
	C560.109497,234.564102 546.009827,240.891251 529.008179,240.818298 
	C515.015991,240.758255 501.022095,240.706757 487.031769,240.878510 
	C483.389008,240.923218 482.109436,239.878006 482.128296,236.091843 
	C482.415680,178.457108 482.603424,120.821793 482.694916,63.186424 
	C482.700897,59.435780 483.947113,58.303585 487.609802,58.341511 
	C503.266388,58.503651 518.930359,58.181477 534.582458,58.493389 
	C556.741821,58.934982 572.871277,69.560280 581.777588,89.613838 
	C590.644043,109.577560 586.798096,128.062653 571.843567,144.015884 
	C569.589722,146.420258 569.815918,147.781143 571.796814,150.192245 
	C589.378540,171.592682 589.330078,199.319427 571.613892,221.601807 
M514.213867,164.098007 
	C514.213867,178.854553 514.213867,193.611099 514.213867,208.545532 
	C520.993225,208.545532 527.356873,209.170670 533.549255,208.407104 
	C544.322754,207.078674 552.472900,197.677246 553.167175,186.917191 
	C553.841003,176.473511 547.394348,165.976486 537.129822,163.817780 
	C529.861572,162.289230 522.050842,163.340317 514.213867,164.098007 
M516.022522,130.709503 
	C522.009216,130.731888 527.999695,130.900406 533.981812,130.745544 
	C545.580933,130.445221 554.652771,121.247192 554.597595,110.050575 
	C554.543884,99.132072 545.565552,90.012970 534.218018,89.566826 
	C528.903748,89.357887 523.569458,89.656143 518.255432,89.444153 
	C514.863953,89.308846 514.054321,90.760841 514.095642,93.886322 
	C514.240540,104.861374 514.122437,115.839699 514.197632,126.816139 
	C514.205994,128.039337 514.812378,129.258438 516.022522,130.709503 
z"/>
<path fill="#E05F1B" opacity="1.000000" stroke="none" 
	d="
M362.752045,253.232513 
	C358.880463,249.302689 355.444733,245.403473 351.533783,242.060150 
	C350.125641,240.856369 347.302429,240.109909 345.585846,240.641876 
	C311.861694,251.092896 278.425140,227.499100 277.911560,192.171906 
	C277.490326,163.192825 277.670288,134.196747 278.101746,105.215935 
	C278.507294,77.976288 302.147369,55.376621 329.391388,55.466972 
	C356.653015,55.557384 379.627533,77.693459 380.099915,105.080452 
	C380.591095,133.560242 380.817474,162.059647 380.261566,190.532913 
	C380.103882,198.608643 377.099884,206.708511 374.795410,214.620865 
	C373.949432,217.525482 373.580597,219.369736 375.978149,221.583282 
	C380.012634,225.308136 383.867798,229.252075 387.508270,233.360901 
	C388.388885,234.354813 388.924591,237.083038 388.282654,237.776184 
	C381.860931,244.709976 375.159698,251.384888 366.751312,259.952606 
	C365.190735,257.260956 364.095459,255.371857 362.752045,253.232513 
M326.290619,211.299377 
	C339.215973,212.437973 348.735352,204.040573 348.806549,190.528870 
	C348.953156,162.714676 348.819611,134.895859 348.451447,107.083565 
	C348.291412,94.995209 339.848358,86.832596 328.738678,87.003082 
	C317.744049,87.171814 309.814087,95.686440 309.768921,107.835869 
	C309.666107,135.484955 309.674500,163.134918 309.773682,190.784042 
	C309.811737,201.389160 315.118958,208.033936 326.290619,211.299377 
z"/>
<path fill="#E05F1B" opacity="1.000000" stroke="none" 
	d="
M661.588318,56.304764 
	C686.865295,62.366959 702.876892,81.806374 703.248352,107.269623 
	C703.653931,135.071198 703.877563,162.882675 703.625549,190.684799 
	C703.300537,226.535629 669.687195,251.608704 636.799072,240.949219 
	C616.328430,234.314392 601.014771,213.910187 600.869019,192.283142 
	C600.681641,164.478806 600.827087,136.671387 600.961670,108.865944 
	C601.125183,75.082031 627.685669,51.924858 661.588318,56.304764 
M632.694397,163.499817 
	C632.711609,172.999512 632.503906,182.506393 632.808044,191.996902 
	C633.124634,201.879227 640.254517,209.959030 649.262939,211.317474 
	C658.331604,212.685028 667.008423,207.470230 670.396606,198.175079 
	C671.453369,195.276199 671.894897,191.999268 671.898743,188.894531 
	C671.931030,162.562042 671.813782,136.229279 671.685242,109.896858 
	C671.673096,107.409637 671.491943,104.882568 671.020081,102.445511 
	C669.253235,93.321159 661.389954,86.957245 652.160828,87.004097 
	C641.142273,87.060036 632.852356,95.615959 632.751404,107.501373 
	C632.595703,125.833023 632.700195,144.166885 632.694397,163.499817 
z"/>
<path fill="#DF5E1A" opacity="1.000000" stroke="none" 
	d="
M732.395508,121.681732 
	C725.289185,100.710976 718.308533,80.109909 710.951294,58.397560 
	C719.325073,58.397560 726.738098,58.337097 734.149780,58.412548 
	C743.871521,58.511513 742.300964,57.090603 745.046448,66.731911 
	C749.697327,83.064529 754.262085,99.421684 758.876038,115.764854 
	C759.278015,117.188667 759.776672,118.585190 760.604126,121.154556 
	C764.218994,108.632652 767.532593,97.194679 770.820862,85.749413 
	C773.027466,78.068985 775.305786,70.406456 777.331421,62.678116 
	C778.131470,59.625675 779.508972,58.259251 782.839600,58.335148 
	C791.471802,58.531857 800.111511,58.401161 809.651978,58.401161 
	C808.981140,60.895081 808.592285,62.743828 807.989746,64.520073 
	C799.485352,89.590073 791.028748,114.676857 782.350037,139.686554 
	C780.899597,143.866562 780.946411,147.589096 782.280640,151.755936 
	C791.114563,179.345047 799.768372,206.991821 808.467407,234.624039 
	C809.005066,236.332169 809.428650,238.076218 810.183960,240.812988 
	C803.144836,240.812988 796.745728,240.812973 790.346619,240.812973 
	C778.720703,240.812973 778.686768,240.822006 775.718323,229.646744 
	C771.187744,212.590332 766.712830,195.519119 762.203430,178.457062 
	C761.783630,176.868698 761.286499,175.300797 760.444092,172.419937 
	C756.782715,185.978180 753.447266,198.282578 750.139465,210.594406 
	C747.806763,219.276581 745.421875,227.946503 743.247803,236.668640 
	C742.471558,239.782623 740.978699,240.964569 737.687622,240.884171 
	C728.926636,240.670090 720.156921,240.811401 710.647400,240.811401 
	C711.383362,238.106033 711.823059,236.218323 712.408936,234.377075 
	C721.140991,206.931091 729.824280,179.469177 738.708801,152.072510 
	C740.121887,147.715103 740.210876,143.811569 738.506958,139.530121 
	C736.232544,133.814972 734.491394,127.887611 732.395508,121.681732 
z"/>
<path fill="#DD5E1A" opacity="1.000000" stroke="none" 
	d="
M449.804901,134.282181 
	C456.930237,134.337311 456.932434,134.337311 456.934692,141.158325 
	C456.936859,147.644638 456.817535,154.133926 456.983826,160.615952 
	C457.062286,163.674789 456.359192,165.118439 452.887573,165.082932 
	C437.920746,164.929718 422.950745,164.943481 407.983521,165.077560 
	C404.674683,165.107193 403.619568,163.896927 403.684998,160.710693 
	C403.835175,153.395935 403.857574,146.072723 403.673584,138.759415 
	C403.583954,135.195999 405.061798,134.202209 408.417572,134.233185 
	C422.054291,134.359024 435.692871,134.283386 449.804901,134.282181 
z"/>
<path fill="#FEFAE2" opacity="1.000000" stroke="none" 
	d="
M151.575043,47.868446 
	C175.338531,74.769508 176.849060,107.199051 175.238831,140.278366 
	C174.731842,150.693466 172.954880,161.046738 171.878174,170.395020 
	C174.354019,171.475830 176.598923,171.875381 178.030731,173.172485 
	C189.744980,183.784698 196.014816,196.866348 195.745361,212.910294 
	C195.572723,223.188492 195.712982,233.471939 195.712982,244.466125 
	C186.091644,242.968323 178.166245,240.151886 171.098267,234.829224 
	C162.903305,228.657837 164.347229,219.956085 164.700287,212.129242 
	C161.143829,215.899292 157.298508,219.975571 153.453171,224.051849 
	C153.313400,223.624710 153.173630,223.197571 153.033859,222.770432 
	C153.362152,225.139816 154.327408,227.630966 153.901962,229.856247 
	C152.501556,237.180756 143.260590,242.919266 133.995163,242.660767 
	C126.108604,242.440750 118.250381,236.805923 118.546852,229.201477 
	C118.924454,219.516281 111.508514,216.238983 105.932846,210.587631 
	C105.932846,213.446381 105.774734,216.315643 105.963722,219.161865 
	C106.450195,226.488495 103.164764,232.098892 97.044930,235.252670 
	C90.610809,238.568390 83.521141,240.612000 76.332794,243.362549 
	C75.470947,242.056625 74.586273,240.600647 74.582764,239.142548 
	C74.557098,228.491180 74.417381,217.826874 74.874260,207.190735 
	C75.506493,192.472275 82.705246,180.968063 93.740738,171.708694 
	C94.996101,170.655365 97.151192,170.674362 99.183632,170.115097 
	C98.280624,160.488312 97.185768,150.419327 96.421547,140.325302 
	C94.966873,121.111572 95.803909,102.028946 101.211464,83.413902 
	C105.454124,68.808914 111.786682,55.185394 124.217522,45.682373 
	C135.667450,36.929226 136.858765,36.998268 148.561249,45.550858 
	C149.500320,46.237167 150.365799,47.024166 151.575043,47.868446 
M130.469574,154.888077 
	C129.854660,165.368454 129.235428,175.848602 128.625931,186.329285 
	C127.890640,198.972961 127.113342,211.614487 126.455017,224.262207 
	C126.143425,230.248779 129.214737,233.343216 135.071732,233.260544 
	C140.904526,233.178192 144.024460,229.858246 143.786575,223.661942 
	C142.744522,196.519287 141.582092,169.380981 140.659561,142.234451 
	C140.586105,140.072830 141.348175,136.705261 142.839630,135.852234 
	C156.091370,128.272995 159.182266,102.980453 148.433456,89.073853 
	C142.160690,80.958282 132.243683,80.383636 125.088425,87.730743 
	C114.652122,98.446846 113.995186,122.356743 125.179817,132.142944 
	C130.761063,137.026367 131.661621,141.694794 130.829208,147.964325 
	C130.567032,149.939026 130.625565,151.956314 130.469574,154.888077 
M165.407166,209.587250 
	C165.407166,209.587250 165.548401,209.509247 165.407166,209.587250 
z"/>
<path fill="#050201" opacity="1.000000" stroke="none" 
	d="
M514.348022,163.668945 
	C522.050842,163.340317 529.861572,162.289230 537.129822,163.817780 
	C547.394348,165.976486 553.841003,176.473511 553.167175,186.917191 
	C552.472900,197.677246 544.322754,207.078674 533.549255,208.407104 
	C527.356873,209.170670 520.993225,208.545532 514.213867,208.545532 
	C514.213867,193.611099 514.213867,178.854553 514.348022,163.668945 
z"/>
<path fill="#060201" opacity="1.000000" stroke="none" 
	d="
M515.581970,130.594482 
	C514.812378,129.258438 514.205994,128.039337 514.197632,126.816139 
	C514.122437,115.839699 514.240540,104.861374 514.095642,93.886322 
	C514.054321,90.760841 514.863953,89.308846 518.255432,89.444153 
	C523.569458,89.656143 528.903748,89.357887 534.218018,89.566826 
	C545.565552,90.012970 554.543884,99.132072 554.597595,110.050575 
	C554.652771,121.247192 545.580933,130.445221 533.981812,130.745544 
	C527.999695,130.900406 522.009216,130.731888 515.581970,130.594482 
z"/>
<path fill="#030100" opacity="1.000000" stroke="none" 
	d="
M325.897339,211.234756 
	C315.118958,208.033936 309.811737,201.389160 309.773682,190.784042 
	C309.674500,163.134918 309.666107,135.484955 309.768921,107.835869 
	C309.814087,95.686440 317.744049,87.171814 328.738678,87.003082 
	C339.848358,86.832596 348.291412,94.995209 348.451447,107.083565 
	C348.819611,134.895859 348.953156,162.714676 348.806549,190.528870 
	C348.735352,204.040573 339.215973,212.437973 325.897339,211.234756 
z"/>
<path fill="#030100" opacity="1.000000" stroke="none" 
	d="
M632.694336,162.999817 
	C632.700195,144.166885 632.595703,125.833023 632.751404,107.501373 
	C632.852356,95.615959 641.142273,87.060036 652.160828,87.004097 
	C661.389954,86.957245 669.253235,93.321159 671.020081,102.445511 
	C671.491943,104.882568 671.673096,107.409637 671.685242,109.896858 
	C671.813782,136.229279 671.931030,162.562042 671.898743,188.894531 
	C671.894897,191.999268 671.453369,195.276199 670.396606,198.175079 
	C667.008423,207.470230 658.331604,212.685028 649.262939,211.317474 
	C640.254517,209.959030 633.124634,201.879227 632.808044,191.996902 
	C632.503906,182.506393 632.711609,172.999512 632.694336,162.999817 
z"/>
<path fill="#C75D28" opacity="1.000000" stroke="none" 
	d="
M130.503448,154.421082 
	C130.625565,151.956314 130.567032,149.939026 130.829208,147.964325 
	C131.661621,141.694794 130.761063,137.026367 125.179817,132.142944 
	C113.995186,122.356743 114.652122,98.446846 125.088425,87.730743 
	C132.243683,80.383636 142.160690,80.958282 148.433456,89.073853 
	C159.182266,102.980453 156.091370,128.272995 142.839630,135.852234 
	C141.348175,136.705261 140.586105,140.072830 140.659561,142.234451 
	C141.582092,169.380981 142.744522,196.519287 143.786575,223.661942 
	C144.024460,229.858246 140.904526,233.178192 135.071732,233.260544 
	C129.214737,233.343216 126.143425,230.248779 126.455017,224.262207 
	C127.113342,211.614487 127.890640,198.972961 128.625931,186.329285 
	C129.235428,175.848602 129.854660,165.368454 130.503448,154.421082 
M122.043633,119.691925 
	C122.869995,121.498886 123.696350,123.305847 124.522713,125.112816 
	C124.949173,124.955269 125.375633,124.797722 125.802094,124.640182 
	C125.168282,122.751122 124.534470,120.862061 123.852211,118.176025 
	C123.662941,116.364594 123.341682,114.555794 123.305565,112.741318 
	C123.047653,99.787971 129.046143,92.211464 140.774887,90.536186 
	C140.939499,90.512665 141.038300,90.028336 141.167374,89.760002 
	C136.548798,87.144539 132.112473,87.509521 128.144653,91.393448 
	C120.165932,99.203461 119.360214,108.739700 122.043633,119.691925 
M143.433624,91.477448 
	C143.433624,91.477448 143.459381,91.528275 143.433624,91.477448 
z"/>
<path fill="#C35520" opacity="1.000000" stroke="none" 
	d="
M165.477783,209.548248 
	C165.548401,209.509247 165.407166,209.587250 165.477783,209.548248 
z"/>
<path fill="#EFCFAF" opacity="1.000000" stroke="none" 
	d="
M122.054817,118.980156 
	C119.360214,108.739700 120.165932,99.203461 128.144653,91.393448 
	C132.112473,87.509521 136.548798,87.144539 141.167374,89.760002 
	C141.038300,90.028336 140.939499,90.512665 140.774887,90.536186 
	C129.046143,92.211464 123.047653,99.787971 123.305565,112.741318 
	C123.341682,114.555794 123.662941,116.364594 123.568802,118.569183 
	C122.875206,118.968285 122.465012,118.974220 122.054817,118.980156 
z"/>
<path fill="#E5B590" opacity="1.000000" stroke="none" 
	d="
M122.049225,119.336044 
	C122.465012,118.974220 122.875206,118.968285 123.593025,118.967674 
	C124.534470,120.862061 125.168282,122.751122 125.802094,124.640182 
	C125.375633,124.797722 124.949173,124.955269 124.522713,125.112816 
	C123.696350,123.305847 122.869995,121.498886 122.049225,119.336044 
z"/>
<path fill="#EFCFAF" opacity="1.000000" stroke="none" 
	d="
M143.446503,91.502861 
	C143.459381,91.528275 143.433624,91.477448 143.446503,91.502861 
z"/>
</svg>