<?xml version="1.0" standalone="no"?>
<!DOCTYPE svg PUBLIC "-//W3C//DTD SVG 20010904//EN"
 "http://www.w3.org/TR/2001/REC-SVG-20010904/DTD/svg10.dtd">
<svg version="1.0" xmlns="http://www.w3.org/2000/svg"
 width="936.000000pt" height="266.000000pt" viewBox="0 0 936.000000 266.000000"
 preserveAspectRatio="xMidYMid meet">

<g transform="translate(0.000000,266.000000) scale(0.100000,-0.100000)"
fill="#000000" stroke="none">
<path d="M1495 2360 c-3 -5 -14 -10 -22 -10 -24 0 -80 -41 -92 -68 -8 -15 -11
-314 -12 -922 0 -797 2 -902 16 -929 18 -36 43 -51 105 -65 63 -14 1687 -19
1759 -6 67 12 104 45 121 105 9 33 11 191 6 661 -4 340 -10 622 -14 626 -4 4
-4 45 0 90 3 46 7 159 7 251 1 156 -1 171 -20 198 -20 29 -60 54 -102 67 -40
11 -1745 14 -1752 2z m960 -109 c111 -70 201 -239 241 -448 19 -103 23 -413 7
-493 -6 -30 -14 -74 -17 -96 -6 -39 -4 -42 22 -47 19 -4 41 -25 75 -72 93
-129 92 -124 95 -352 2 -112 1 -203 -2 -203 -4 0 -42 12 -85 26 -130 43 -181
99 -182 200 l-1 56 -43 -42 c-39 -38 -42 -46 -38 -80 7 -49 -24 -95 -81 -121
-110 -50 -226 12 -226 121 0 25 -11 44 -45 81 l-45 48 0 -55 c0 -96 -38 -139
-167 -189 -40 -16 -73 -31 -73 -35 0 -4 17 -15 38 -24 20 -9 48 -26 62 -37 14
-12 -6 -4 -45 16 -110 59 -104 43 -95 245 11 247 31 297 163 419 34 31 37 39
37 87 0 29 -4 56 -10 59 -15 9 -12 324 5 440 22 156 77 305 144 389 42 53 159
135 193 136 15 0 48 -13 73 -29z m110 -69 c-3 -3 -11 0 -18 7 -9 10 -8 11 6 5
10 -3 15 -9 12 -12z m130 -70 c-3 -3 -11 0 -18 7 -9 10 -8 11 6 5 10 -3 15 -9
12 -12z m40 -20 c-3 -3 -11 0 -18 7 -9 10 -8 11 6 5 10 -3 15 -9 12 -12z m295
-158 c0 -2 -9 0 -20 6 -11 6 -20 13 -20 16 0 2 9 0 20 -6 11 -6 20 -13 20 -16z
m145 -74 c3 -6 -1 -7 -9 -4 -18 7 -21 14 -7 14 6 0 13 -4 16 -10z m-1095
-1426 c0 -2 -9 0 -20 6 -11 6 -20 13 -20 16 0 2 9 0 20 -6 11 -6 20 -13 20
-16z"/>
<path d="M2306 1879 c-108 -85 -113 -281 -10 -391 24 -26 44 -54 44 -63 0 -9
-9 -174 -21 -368 -14 -249 -17 -357 -10 -374 19 -41 99 -43 121 -3 7 13 7 72
1 187 -6 92 -12 260 -15 372 l-4 203 38 42 c60 66 73 100 74 196 1 101 -25
166 -78 200 -44 26 -105 26 -140 -1z m108 -15 c32 -12 17 -34 -23 -34 -51 0
-84 -33 -105 -109 -12 -43 -14 -66 -6 -85 5 -14 8 -26 5 -26 -2 0 0 -13 5 -30
12 -42 -6 -47 -26 -8 -24 45 -24 171 -1 215 33 62 100 97 151 77z"/>
<path d="M3920 2130 c-75 -16 -166 -69 -218 -126 -59 -65 -110 -162 -120 -229
-4 -27 -7 -228 -7 -445 0 -385 1 -397 23 -465 42 -127 158 -245 274 -279 54
-16 198 -16 269 -2 34 8 38 6 106 -63 39 -39 76 -71 83 -71 18 0 170 151 170
170 0 8 -27 42 -60 75 -67 67 -71 80 -38 152 23 47 23 56 26 476 3 465 2 478
-54 589 -32 63 -143 176 -158 161 -3 -4 -6 -1 -6 5 0 10 -65 34 -131 48 -53
11 -116 12 -159 4z m154 -270 c23 -11 52 -36 66 -57 l25 -36 3 -393 c2 -250
-1 -407 -7 -431 -28 -102 -165 -148 -250 -85 -64 47 -66 55 -71 290 -3 119 -3
310 0 424 6 232 8 241 86 285 48 28 96 29 148 3z"/>
<path d="M6680 2136 c-3 -3 -20 -8 -38 -11 -167 -29 -305 -172 -341 -353 -14
-70 -15 -773 0 -844 10 -53 38 -128 50 -138 3 -3 13 -18 22 -35 32 -62 131
-136 231 -171 85 -29 237 -15 325 30 53 28 148 133 183 203 l33 68 2 425 c2
465 -3 522 -52 605 -63 109 -175 191 -285 209 -82 13 -125 17 -130 12z m121
-279 c27 -15 52 -38 66 -63 22 -39 23 -44 23 -435 0 -439 0 -441 -64 -497 -82
-72 -200 -42 -250 63 -15 30 -16 83 -14 444 3 397 4 410 24 437 26 36 98 74
139 74 18 0 52 -10 76 -23z"/>
<path d="M7235 2111 c-4 -4 4 -58 12 -81 3 -8 26 -71 50 -140 25 -69 54 -152
66 -185 77 -228 97 -294 98 -320 2 -36 -36 -166 -131 -453 -39 -117 -73 -221
-75 -230 -2 -9 -11 -36 -20 -60 -10 -24 -15 -45 -12 -49 4 -3 61 -5 128 -5
134 1 131 -1 148 68 5 21 17 64 26 94 8 30 20 73 24 95 5 22 21 85 36 140 15
55 29 110 32 123 3 12 9 25 14 27 9 6 28 -25 34 -53 2 -9 13 -53 24 -97 12
-44 24 -88 26 -98 2 -9 6 -21 9 -25 3 -5 7 -22 10 -38 9 -47 55 -226 60 -232
6 -6 45 -7 159 -4 104 2 103 0 56 132 -16 47 -31 92 -33 100 -2 8 -18 58 -35
110 -18 52 -33 102 -34 110 -3 16 -22 76 -73 238 l-33 103 35 102 c41 116 115
337 119 352 1 6 5 17 8 25 14 35 77 230 77 239 0 7 -44 11 -124 11 l-124 0
-12 -34 c-6 -18 -12 -43 -15 -55 -2 -11 -6 -25 -9 -30 -3 -4 -19 -62 -37 -127
-17 -65 -38 -139 -46 -164 -9 -25 -16 -52 -18 -60 -1 -8 -9 -16 -17 -18 -11
-2 -19 12 -28 45 -7 26 -21 77 -32 113 -40 132 -78 271 -78 284 0 34 -33 45
-148 48 -63 2 -115 1 -117 -1z"/>
<path d="M5307 2103 c-4 -3 -7 -347 -7 -764 l0 -757 228 3 c125 1 250 8 277
14 55 13 155 59 155 72 0 5 13 15 29 24 42 21 115 128 139 202 47 143 13 342
-75 435 -30 31 -26 50 18 99 55 59 89 145 90 224 3 218 -112 381 -310 441 -34
10 -110 14 -292 14 -135 0 -249 -3 -252 -7z m465 -253 c116 -33 169 -167 102
-262 -45 -66 -98 -88 -209 -88 -57 0 -95 4 -103 12 -8 8 -12 60 -12 168 0 108
4 160 12 168 15 15 158 16 210 2z m19 -630 c54 -28 92 -90 97 -159 7 -98 -43
-174 -131 -201 -45 -13 -179 -16 -198 -5 -14 9 -2 377 12 386 20 12 184 -4
220 -21z"/>
<path d="M4639 1466 c-5 -6 -9 -61 -9 -123 l0 -113 223 2 222 3 3 113 c2 84
-1 113 -10 117 -27 9 -419 10 -429 1z"/>
</g>
</svg>
