<svg version="1.1" id="Layer_1" xmlns="http://www.w3.org/2000/svg" xmlns:xlink="http://www.w3.org/1999/xlink" x="0px" y="0px"
	 width="100%" viewBox="0 0 654 657" enable-background="new 0 0 654 657" xml:space="preserve">
<path fill="#010000" opacity="1.000000" stroke="none" 
	d="
M655.000000,252.000000 
	C655.000000,387.666656 655.000000,522.833313 655.000000,658.000000 
	C437.000031,658.000000 219.000092,658.000000 1.000095,658.000000 
	C1.000063,439.000061 1.000063,220.000137 1.000032,1.000154 
	C218.999893,1.000102 436.999786,1.000102 654.999878,1.000051 
	C655.000000,84.500000 655.000000,168.000000 655.000000,252.000000 
M287.314941,637.078491 
	C388.600739,637.092346 489.886627,637.168518 591.171997,636.962952 
	C597.171021,636.950806 603.598572,635.665833 609.083923,633.271484 
	C628.510254,624.792175 637.805969,609.322754 637.809143,588.239929 
	C637.827759,464.797333 637.820251,341.354736 637.807495,217.912140 
	C637.807373,216.255127 637.625427,214.598145 637.675293,212.022186 
	C637.690674,177.192307 637.725342,142.362396 637.711365,107.532539 
	C637.706299,95.038170 637.583618,82.543846 637.718262,69.286972 
	C637.477295,67.529037 637.236328,65.771103 637.059937,63.199757 
	C633.883240,39.284630 614.522156,23.159389 588.780212,23.156441 
	C416.817871,23.136751 244.855545,23.134579 72.893204,23.157257 
	C43.732178,23.161102 24.109329,42.929806 24.107233,72.228706 
	C24.094944,243.857788 24.096535,415.486877 24.108313,587.115967 
	C24.110405,617.619934 43.583691,637.037476 74.156059,637.044067 
	C143.307587,637.058899 212.459106,637.049622 281.610626,637.041809 
	C283.274261,637.041626 284.937897,636.943726 287.314941,637.078491 
z"/>
<path fill="#E3601B" opacity="1.000000" stroke="none" 
	d="
M637.514648,70.049507 
	C637.583618,82.543846 637.706299,95.038170 637.711365,107.532539 
	C637.725342,142.362396 637.690674,177.192307 637.262695,212.428711 
	C633.680725,211.402740 630.405457,210.165009 627.358337,208.507736 
	C595.794373,191.340195 564.296143,174.051880 532.717834,156.910828 
	C516.633789,148.180222 500.372864,139.775574 484.281982,131.057373 
	C446.105438,110.372871 407.990143,89.575409 369.810333,68.896942 
	C368.313843,68.086449 366.408966,68.030075 364.731384,67.550827 
	C364.768433,67.479347 364.913422,67.549347 364.684570,67.296570 
	C363.877899,66.709450 363.300079,66.375092 362.399506,65.965424 
	C359.324463,64.014488 356.459839,62.282856 353.838684,60.239044 
	C340.465515,49.811554 327.715332,50.665962 313.664093,60.032902 
	C287.329132,77.588539 269.562408,101.708221 256.697144,129.952698 
	C240.300583,165.949814 233.648605,204.220139 231.000580,243.341248 
	C227.867096,289.634155 232.499420,335.520752 238.602295,381.316376 
	C239.375534,387.118683 240.123184,392.924438 240.882675,398.728577 
	C239.083862,397.203705 238.331223,395.421112 237.496368,393.677856 
	C236.562805,391.728607 235.616272,389.780731 234.564468,387.894104 
	C233.033630,385.148254 231.015686,384.555115 228.488281,386.728516 
	C225.710190,389.117523 222.822525,391.387207 220.141891,393.880188 
	C195.077087,417.190430 178.136185,444.977356 176.560181,479.844330 
	C175.199326,509.950867 175.615692,540.138977 175.408676,570.292236 
	C175.399887,571.574341 177.027603,572.867676 178.020248,574.469849 
	C179.388077,575.831116 180.491180,577.132568 181.889328,577.888245 
	C212.588684,594.481445 243.365112,610.932800 273.998291,627.646912 
	C278.531219,630.120117 282.416565,633.780334 286.601532,636.891357 
	C284.937897,636.943726 283.274261,637.041626 281.610626,637.041809 
	C212.459106,637.049622 143.307587,637.058899 74.156059,637.044067 
	C43.583691,637.037476 24.110405,617.619934 24.108313,587.115967 
	C24.096535,415.486877 24.094944,243.857788 24.107233,72.228706 
	C24.109329,42.929806 43.732178,23.161102 72.893204,23.157257 
	C244.855545,23.134579 416.817871,23.136751 588.780212,23.156441 
	C614.522156,23.159389 633.883240,39.284630 636.835693,63.893806 
	C636.912476,66.408401 637.213562,68.228951 637.514648,70.049507 
z"/>
<path fill="#C4551F" opacity="1.000000" stroke="none" 
	d="
M364.694366,67.622314 
	C366.408966,68.030075 368.313843,68.086449 369.810333,68.896942 
	C407.990143,89.575409 446.105438,110.372871 484.281982,131.057373 
	C500.372864,139.775574 516.633789,148.180222 532.717834,156.910828 
	C564.296143,174.051880 595.794373,191.340195 627.358337,208.507736 
	C630.405457,210.165009 633.680725,211.402740 637.189209,212.888184 
	C637.625427,214.598145 637.807373,216.255127 637.807495,217.912140 
	C637.820251,341.354736 637.827759,464.797333 637.809143,588.239929 
	C637.805969,609.322754 628.510254,624.792175 609.083923,633.271484 
	C603.598572,635.665833 597.171021,636.950806 591.171997,636.962952 
	C489.886627,637.168518 388.600739,637.092346 286.958252,636.984924 
	C282.416565,633.780334 278.531219,630.120117 273.998291,627.646912 
	C243.365112,610.932800 212.588684,594.481445 181.889328,577.888245 
	C180.491180,577.132568 179.388077,575.831116 178.423752,574.359497 
	C181.220337,573.298401 183.734100,572.633911 186.262146,572.029114 
	C203.707764,567.856018 220.497192,562.078979 235.387390,551.741638 
	C248.706009,542.495361 256.694641,530.396851 255.724304,513.501831 
	C255.533569,510.181061 255.538147,506.820160 255.813309,503.507721 
	C256.368042,496.829895 255.470642,490.617798 251.227097,485.147552 
	C250.530365,484.249481 250.339386,482.959045 249.914658,481.849945 
	C250.244629,481.639709 250.574600,481.429474 250.904572,481.219269 
	C264.846954,495.654572 278.789337,510.089874 292.731689,524.525208 
	C292.388580,524.852295 292.045441,525.179443 291.702332,525.506592 
	C289.859314,524.712158 288.016296,523.917725 285.855072,522.986084 
	C285.788788,537.921997 288.556976,551.152100 300.035522,561.035217 
	C311.019226,570.492310 323.987549,573.135620 337.933411,571.011658 
	C355.187378,568.383850 369.072052,560.362366 376.926300,544.084717 
	C380.030121,537.652100 381.138397,530.850098 377.570160,523.807434 
	C374.441284,524.682800 371.508759,525.503296 367.835358,526.531006 
	C376.089722,515.595032 405.666443,487.160156 407.808411,486.921143 
	C406.946838,491.886017 405.707123,497.097290 405.221832,502.377899 
	C404.750671,507.504364 405.181000,512.706604 404.991821,517.867432 
	C404.522614,530.668701 409.873962,540.843018 419.248138,549.015991 
	C437.302277,564.756775 459.376923,571.522095 482.132812,576.648254 
	C482.566071,576.745850 483.072510,576.518677 483.924744,576.382141 
	C484.017181,574.763489 484.174744,573.141052 484.192871,571.516968 
	C484.477997,546.019226 484.590393,520.518433 485.050934,495.023926 
	C485.839569,451.367035 467.570557,416.912384 434.794128,389.199249 
	C430.899445,385.906219 429.049103,387.344086 427.185059,390.853271 
	C425.630463,393.779877 424.150299,396.746002 422.637177,399.694611 
	C423.142365,388.455139 424.671570,377.611481 426.309723,366.784332 
	C433.285522,320.678345 437.014679,274.436157 432.586731,227.808655 
	C430.345032,204.202988 426.705963,180.863022 419.829498,158.123093 
	C409.270935,123.206688 392.711792,91.916542 364.694366,67.622314 
z"/>
<path fill="#C4551F" opacity="1.000000" stroke="none" 
	d="
M637.616455,69.668243 
	C637.213562,68.228951 636.912476,66.408401 636.803406,64.300507 
	C637.236328,65.771103 637.477295,67.529037 637.616455,69.668243 
z"/>
<path fill="#FFFDE5" opacity="1.000000" stroke="none" 
	d="
M364.731384,67.550827 
	C392.711792,91.916542 409.270935,123.206688 419.829498,158.123093 
	C426.705963,180.863022 430.345032,204.202988 432.586731,227.808655 
	C437.014679,274.436157 433.285522,320.678345 426.309723,366.784332 
	C424.671570,377.611481 423.142365,388.455139 422.637177,399.694611 
	C424.150299,396.746002 425.630463,393.779877 427.185059,390.853271 
	C429.049103,387.344086 430.899445,385.906219 434.794128,389.199249 
	C467.570557,416.912384 485.839569,451.367035 485.050934,495.023926 
	C484.590393,520.518433 484.477997,546.019226 484.192871,571.516968 
	C484.174744,573.141052 484.017181,574.763489 483.924744,576.382141 
	C483.072510,576.518677 482.566071,576.745850 482.132812,576.648254 
	C459.376923,571.522095 437.302277,564.756775 419.248138,549.015991 
	C409.873962,540.843018 404.522614,530.668701 404.991821,517.867432 
	C405.181000,512.706604 404.750671,507.504364 405.221832,502.377899 
	C405.707123,497.097290 406.946838,491.886017 407.808411,486.921143 
	C405.666443,487.160156 376.089722,515.595032 367.835358,526.531006 
	C371.508759,525.503296 374.441284,524.682800 377.570160,523.807434 
	C381.138397,530.850098 380.030121,537.652100 376.926300,544.084717 
	C369.072052,560.362366 355.187378,568.383850 337.933411,571.011658 
	C323.987549,573.135620 311.019226,570.492310 300.035522,561.035217 
	C288.556976,551.152100 285.788788,537.921997 285.855072,522.986084 
	C288.016296,523.917725 289.859314,524.712158 291.702332,525.506592 
	C292.045441,525.179443 292.388580,524.852295 292.731689,524.525208 
	C278.789337,510.089874 264.846954,495.654572 250.904572,481.219269 
	C250.574600,481.429474 250.244629,481.639709 249.914658,481.849945 
	C250.339386,482.959045 250.530365,484.249481 251.227097,485.147552 
	C255.470642,490.617798 256.368042,496.829895 255.813309,503.507721 
	C255.538147,506.820160 255.533569,510.181061 255.724304,513.501831 
	C256.694641,530.396851 248.706009,542.495361 235.387390,551.741638 
	C220.497192,562.078979 203.707764,567.856018 186.262146,572.029114 
	C183.734100,572.633911 181.220337,573.298401 178.296448,574.045532 
	C177.027603,572.867676 175.399887,571.574341 175.408676,570.292236 
	C175.615692,540.138977 175.199326,509.950867 176.560181,479.844330 
	C178.136185,444.977356 195.077087,417.190430 220.141891,393.880188 
	C222.822525,391.387207 225.710190,389.117523 228.488281,386.728516 
	C231.015686,384.555115 233.033630,385.148254 234.564468,387.894104 
	C235.616272,389.780731 236.562805,391.728607 237.496368,393.677856 
	C238.331223,395.421112 239.083862,397.203705 240.882675,398.728577 
	C240.123184,392.924438 239.375534,387.118683 238.602295,381.316376 
	C232.499420,335.520752 227.867096,289.634155 231.000580,243.341248 
	C233.648605,204.220139 240.300583,165.949814 256.697144,129.952698 
	C269.562408,101.708221 287.329132,77.588539 313.664093,60.032902 
	C327.715332,50.665962 340.465515,49.811554 353.838684,60.239044 
	C356.459839,62.282856 359.324463,64.014488 362.577576,66.262306 
	C363.690033,66.939453 364.301727,67.244400 364.913422,67.549347 
	C364.913422,67.549347 364.768433,67.479347 364.731384,67.550827 
M313.946228,422.439758 
	C311.961945,457.375977 309.954712,492.310913 308.008667,527.249268 
	C307.484070,536.668091 311.603027,543.128967 320.399719,546.043396 
	C327.383698,548.357300 334.527954,548.284851 341.407959,545.339294 
	C348.936890,542.115845 352.736938,536.528503 352.394684,528.109680 
	C350.343933,477.661041 348.377289,427.208954 346.385101,376.757904 
	C345.451447,353.113861 344.573944,329.467346 343.532532,305.828094 
	C343.395264,302.712402 344.610870,301.420105 347.159485,299.714478 
	C352.769165,295.960327 358.544708,292.002380 362.945312,286.981812 
	C374.099121,274.256592 379.001495,258.668671 380.431763,242.083664 
	C382.380310,219.488678 378.297211,198.175720 364.559296,179.562592 
	C352.966309,163.855591 336.178680,158.363770 320.241180,164.706253 
	C312.313812,167.861023 305.979919,173.204926 300.877502,180.008591 
	C280.268311,207.489120 278.649597,251.590271 297.134064,280.602722 
	C301.963837,288.183380 307.788727,294.889893 315.976929,298.731354 
	C320.145905,300.687225 320.847198,303.055450 320.595032,307.196686 
	C318.275909,345.284485 316.156769,383.384430 313.946228,422.439758 
M249.655228,481.260590 
	C249.532822,480.957794 249.410416,480.654968 249.288010,480.352173 
	C249.242706,480.626373 249.197403,480.900604 249.655228,481.260590 
M421.693573,401.480255 
	C421.693573,401.480255 421.533020,401.373505 421.533020,401.373505 
	C421.533020,401.373505 421.545135,401.579651 421.693573,401.480255 
z"/>
<path fill="#C4551F" opacity="1.000000" stroke="none" 
	d="
M364.684570,67.296570 
	C364.301727,67.244400 363.690033,66.939453 362.900269,66.337616 
	C363.300079,66.375092 363.877899,66.709450 364.684570,67.296570 
z"/>
<path fill="#C55822" opacity="1.000000" stroke="none" 
	d="
M313.962830,421.960327 
	C316.156769,383.384430 318.275909,345.284485 320.595032,307.196686 
	C320.847198,303.055450 320.145905,300.687225 315.976929,298.731354 
	C307.788727,294.889893 301.963837,288.183380 297.134064,280.602722 
	C278.649597,251.590271 280.268311,207.489120 300.877502,180.008591 
	C305.979919,173.204926 312.313812,167.861023 320.241180,164.706253 
	C336.178680,158.363770 352.966309,163.855591 364.559296,179.562592 
	C378.297211,198.175720 382.380310,219.488678 380.431763,242.083664 
	C379.001495,258.668671 374.099121,274.256592 362.945312,286.981812 
	C358.544708,292.002380 352.769165,295.960327 347.159485,299.714478 
	C344.610870,301.420105 343.395264,302.712402 343.532532,305.828094 
	C344.573944,329.467346 345.451447,353.113861 346.385101,376.757904 
	C348.377289,427.208954 350.343933,477.661041 352.394684,528.109680 
	C352.736938,536.528503 348.936890,542.115845 341.407959,545.339294 
	C334.527954,548.284851 327.383698,548.357300 320.399719,546.043396 
	C311.603027,543.128967 307.484070,536.668091 308.008667,527.249268 
	C309.954712,492.310913 311.961945,457.375977 313.962830,421.960327 
M299.893127,248.103928 
	C299.904419,241.063492 299.915710,234.023041 300.270447,226.536087 
	C300.305267,225.989761 300.340088,225.443420 300.671112,224.124130 
	C302.489014,213.779877 306.231689,204.192322 312.887878,196.035889 
	C320.936035,186.173737 330.875671,180.213654 344.266449,182.956741 
	C346.369812,183.387604 348.384216,184.252686 350.439758,184.917007 
	C350.653687,184.540756 350.867584,184.164490 351.081512,183.788239 
	C349.901855,182.822449 348.807739,181.721481 347.528961,180.912354 
	C337.699158,174.692673 325.315765,175.233963 315.702118,182.536087 
	C303.312683,191.946594 297.417908,205.025131 294.787903,220.482437 
	C294.781128,221.024490 294.774323,221.566544 294.455261,222.986465 
	C294.592468,229.956161 294.729675,236.925842 294.684326,244.414810 
	C294.833984,244.930893 294.983643,245.446991 295.082825,246.770966 
	C296.432587,253.863373 297.921539,260.898224 302.196411,266.781006 
	C302.705536,266.608368 303.214661,266.435699 303.723816,266.263062 
	C302.599457,261.542358 301.475128,256.821686 300.487335,251.477600 
	C300.271149,250.666946 300.054993,249.856277 299.893127,248.103928 
M302.636169,268.030243 
	C303.314056,269.410797 303.991974,270.791382 304.669891,272.171967 
	C305.212067,271.846802 305.754242,271.521637 306.296417,271.196472 
	C305.234680,269.875305 304.172913,268.554108 302.636169,268.030243 
z"/>
<path fill="#C4551F" opacity="1.000000" stroke="none" 
	d="
M249.403656,481.217712 
	C249.197403,480.900604 249.242706,480.626373 249.288010,480.352173 
	C249.410416,480.654968 249.532822,480.957794 249.403656,481.217712 
z"/>
<path fill="#C4551F" opacity="1.000000" stroke="none" 
	d="
M421.619354,401.529968 
	C421.545135,401.579651 421.533020,401.373505 421.533020,401.373505 
	C421.533020,401.373505 421.693573,401.480255 421.619354,401.529968 
z"/>
<path fill="#FBF1D8" opacity="1.000000" stroke="none" 
	d="
M299.926971,226.982605 
	C299.915710,234.023041 299.904419,241.063492 299.718628,248.785217 
	C299.812988,250.344666 300.081879,251.222824 300.350800,252.100983 
	C301.475128,256.821686 302.599457,261.542358 303.723816,266.263062 
	C303.214661,266.435699 302.705536,266.608368 302.196411,266.781006 
	C297.921539,260.898224 296.432587,253.863373 295.236725,246.209747 
	C295.216064,245.064209 295.041473,244.479874 294.866882,243.895538 
	C294.729675,236.925842 294.592468,229.956161 294.783630,222.431732 
	C295.111908,221.259811 295.111755,220.642654 295.111633,220.025482 
	C297.417908,205.025131 303.312683,191.946594 315.702118,182.536087 
	C325.315765,175.233963 337.699158,174.692673 347.528961,180.912354 
	C348.807739,181.721481 349.901855,182.822449 351.081512,183.788239 
	C350.867584,184.164490 350.653687,184.540756 350.439758,184.917007 
	C348.384216,184.252686 346.369812,183.387604 344.266449,182.956741 
	C330.875671,180.213654 320.936035,186.173737 312.887878,196.035889 
	C306.231689,204.192322 302.489014,213.779877 300.334290,224.613251 
	C299.973969,225.729126 299.950470,226.355865 299.926971,226.982605 
z"/>
<path fill="#FBF1D8" opacity="1.000000" stroke="none" 
	d="
M302.873657,267.631592 
	C304.172913,268.554108 305.234680,269.875305 306.296417,271.196472 
	C305.754242,271.521637 305.212067,271.846802 304.669891,272.171967 
	C303.991974,270.791382 303.314056,269.410797 302.873657,267.631592 
z"/>
<path fill="#F1D6B8" opacity="1.000000" stroke="none" 
	d="
M300.419067,251.789291 
	C300.081879,251.222824 299.812988,250.344666 299.691467,249.256073 
	C300.054993,249.856277 300.271149,250.666946 300.419067,251.789291 
z"/>
<path fill="#F1D6B8" opacity="1.000000" stroke="none" 
	d="
M294.949768,220.253967 
	C295.111755,220.642654 295.111908,221.259811 294.939758,221.992798 
	C294.774323,221.566544 294.781128,221.024490 294.949768,220.253967 
z"/>
<path fill="#F1D6B8" opacity="1.000000" stroke="none" 
	d="
M300.098694,226.759338 
	C299.950470,226.355865 299.973969,225.729126 300.186188,224.999741 
	C300.340088,225.443420 300.305267,225.989761 300.098694,226.759338 
z"/>
<path fill="#F1D6B8" opacity="1.000000" stroke="none" 
	d="
M294.775604,244.155182 
	C295.041473,244.479874 295.216064,245.064209 295.261963,245.805817 
	C294.983643,245.446991 294.833984,244.930893 294.775604,244.155182 
z"/>
</svg>