<svg version="1.1" id="Layer_1" xmlns="http://www.w3.org/2000/svg" xmlns:xlink="http://www.w3.org/1999/xlink" x="0px" y="0px"
	 width="100%" viewBox="0 0 1489 424" enable-background="new 0 0 1489 424" xml:space="preserve">
<path fill="#010000" opacity="1.000000" stroke="none" 
	d="
M997.000000,425.000000 
	C664.710022,425.000000 332.920013,425.000000 1.065003,425.000000 
	C1.065003,283.728485 1.065003,142.456924 1.065003,1.092689 
	C497.333313,1.092689 993.666687,1.092689 1489.967651,1.092689 
	C1489.967651,142.413406 1489.967651,283.706696 1489.967651,425.000000 
	C1325.790161,425.000000 1161.645142,425.000000 997.000000,425.000000 
M531.127625,53.364864 
	C531.127625,53.364864 531.038513,52.942505 530.935974,52.259892 
	C526.965149,47.781689 522.495728,44.476189 515.080750,45.930508 
	C422.384918,45.938179 329.689117,45.945850 236.379242,45.640362 
	C232.820175,46.998783 229.261093,48.357204 225.139267,50.060295 
	C216.714447,56.388096 213.818649,64.897034 214.041534,75.272835 
	C214.434891,93.584106 214.151230,111.909920 214.151596,130.229645 
	C214.153000,201.010406 214.157364,271.791168 214.151932,342.571930 
	C214.151398,349.453308 216.232407,355.602570 220.668533,360.862152 
	C226.357941,367.607635 233.829025,369.806915 242.462799,369.798889 
	C332.395935,369.715424 422.329193,369.762878 512.262329,369.693726 
	C515.882202,369.690918 519.622070,369.302216 523.073303,368.295502 
	C524.979858,367.739410 526.401917,365.522644 528.008057,363.997101 
	C528.008057,363.997101 528.055969,364.045288 528.718140,364.006531 
	C529.524231,363.087006 530.330322,362.167511 531.459900,360.838989 
	C531.711121,360.599060 531.962280,360.359131 532.890076,360.002075 
	C537.433716,355.470581 539.687134,349.907074 539.690002,343.579163 
	C539.731262,252.887451 539.717285,162.195755 539.710754,71.504044 
	C539.710632,70.340492 539.954285,69.035500 539.518066,68.046074 
	C538.839600,66.507164 537.674500,65.182808 536.518677,63.077248 
	C536.277649,62.151649 536.036621,61.226051 535.936890,59.510445 
	C534.599854,57.684078 533.262756,55.857712 531.490417,53.872368 
	C531.490417,53.872368 531.034851,53.786442 531.127625,53.364864 
M1269.622070,293.371155 
	C1269.219238,291.402313 1268.816528,289.433472 1268.537842,286.708191 
	C1267.528687,284.720184 1266.519531,282.732208 1265.387329,280.061554 
	C1265.269165,279.378540 1265.150879,278.695557 1265.305542,277.401917 
	C1264.633667,273.618744 1265.358521,269.272644 1260.996826,266.141693 
	C1259.265259,259.970001 1257.594849,253.780258 1255.781372,247.632721 
	C1254.480835,243.224243 1253.020874,238.861588 1251.575684,234.497162 
	C1248.369263,224.813934 1245.049805,215.166977 1241.983643,205.439926 
	C1241.523804,203.981216 1241.856812,202.057663 1242.381470,200.542465 
	C1244.186157,195.329865 1246.350830,190.242355 1248.173828,185.035568 
	C1252.181763,173.588150 1256.161255,162.128937 1259.974609,150.615662 
	C1264.731689,136.252899 1269.249878,121.811104 1273.997192,107.445061 
	C1275.675903,102.365364 1277.582275,97.348412 1279.648682,92.413300 
	C1281.325928,88.407051 1280.276855,86.426170 1275.819336,86.397583 
	C1265.321411,86.330231 1254.822876,86.379486 1244.324585,86.370911 
	C1240.468872,86.367760 1238.442993,88.148056 1237.435669,92.015167 
	C1235.245728,100.420883 1232.512939,108.683311 1230.151001,117.046356 
	C1225.761963,132.586594 1221.505859,148.164398 1217.116211,163.704483 
	C1216.624634,165.444763 1215.629761,167.042892 1214.283691,169.984482 
	C1212.197754,162.007660 1210.626099,155.440018 1208.753662,148.959305 
	C1205.380249,137.283966 1201.721680,125.690605 1198.387085,114.004539 
	C1196.352051,106.873306 1194.766602,99.615028 1192.850586,92.448189 
	C1191.747314,88.321526 1189.296509,86.123199 1184.596313,86.292374 
	C1176.607910,86.579865 1168.601807,86.374168 1160.603149,86.370323 
	C1147.473877,86.364021 1148.419800,85.155464 1151.837524,98.128777 
	C1151.964111,98.609222 1151.952881,99.132111 1152.117676,99.595436 
	C1157.760986,115.462822 1163.539551,131.283401 1169.028564,147.203812 
	C1172.506226,157.290558 1175.451416,167.559769 1178.839355,177.678848 
	C1180.592651,182.915253 1183.385620,187.865005 1184.620361,193.196350 
	C1185.859619,198.547592 1187.215332,204.577942 1185.947388,209.670151 
	C1182.283447,224.386215 1177.335449,238.783249 1172.867432,253.298080 
	C1171.518921,257.678833 1170.136719,262.050293 1168.691284,266.399841 
	C1165.257935,276.730957 1161.757202,287.039642 1158.321533,297.370056 
	C1155.066772,307.156647 1151.902222,316.973511 1148.608521,326.746887 
	C1147.533813,329.935516 1147.721436,331.879517 1151.832397,331.845612 
	C1163.329712,331.750793 1174.829468,331.883209 1186.324951,331.713470 
	C1187.632690,331.694183 1189.513916,330.634766 1190.098022,329.518219 
	C1191.454956,326.924011 1192.344971,324.045410 1193.133667,321.201508 
	C1195.808960,311.553772 1198.428101,301.889221 1200.938232,292.197266 
	C1204.164551,279.739044 1207.209106,267.233643 1210.450439,254.779404 
	C1211.537476,250.603165 1212.987427,246.521362 1214.434448,241.872726 
	C1215.472412,243.828857 1216.522461,245.181854 1216.948608,246.708939 
	C1220.671021,260.049194 1224.404541,273.388702 1227.890625,286.791931 
	C1231.298828,299.895874 1234.514526,313.052246 1237.612793,326.233093 
	C1238.574097,330.323059 1240.711304,331.937012 1244.865601,331.869354 
	C1254.861328,331.706512 1264.861450,331.820648 1274.859863,331.814972 
	C1281.132324,331.811432 1281.848755,330.422852 1279.838135,324.450684 
	C1277.004761,316.034088 1274.617310,307.467346 1272.147461,298.217346 
	C1271.387939,296.841980 1270.628418,295.466614 1269.622070,293.371155 
M701.794189,130.262161 
	C699.245850,120.541908 693.384155,112.772148 686.978333,105.365913 
	C679.890442,97.171104 671.340454,90.725449 660.941040,87.729805 
	C652.291687,85.238281 643.164856,82.545853 634.360413,82.878571 
	C620.482117,83.403023 607.224731,87.614723 595.894592,96.598267 
	C584.063110,105.979286 575.997009,117.936867 571.332520,132.061218 
	C568.311707,141.208267 567.753845,150.814880 567.827393,160.535645 
	C568.058044,191.014603 567.803589,221.497055 567.780640,251.978195 
	C567.772705,262.543121 566.883606,273.197693 570.607239,283.434204 
	C572.266052,287.994171 573.266541,292.928162 575.653931,297.064362 
	C584.395508,312.209503 595.985352,324.265778 613.044312,330.290649 
	C628.602112,335.785370 643.981873,336.024902 659.531982,330.444427 
	C661.107910,329.878876 663.852905,329.983002 664.911804,330.984955 
	C671.755432,337.460938 678.638000,343.966492 684.764526,351.100647 
	C687.934692,354.792297 690.035767,353.625824 692.468994,351.287598 
	C700.373596,343.691528 708.270081,336.075867 715.825623,328.140137 
	C716.912659,326.998413 717.032654,323.243286 716.017700,322.089600 
	C711.885254,317.391968 707.243774,313.117981 702.588806,308.910278 
	C696.756104,303.638092 695.751404,300.918976 698.040466,296.005951 
	C699.554138,292.757172 700.766479,289.368042 702.798523,285.853424 
	C705.979675,282.752045 706.363159,279.050659 705.086670,274.360535 
	C705.149414,273.937927 705.212158,273.515320 705.979736,272.874695 
	C706.617920,271.290283 707.809570,269.707214 707.813293,268.121307 
	C707.904175,229.635254 707.898987,191.148773 707.747253,152.663025 
	C707.740967,151.072922 706.147400,149.489075 705.158936,147.094086 
	C705.128418,145.729767 705.097900,144.365448 705.422058,142.399368 
	C705.025024,140.572922 704.627991,138.746475 704.051758,136.302963 
	C704.016907,135.876999 703.982056,135.451035 704.277100,134.518890 
	C703.522034,133.340973 702.766968,132.163071 701.794189,130.262161 
M932.201233,326.627350 
	C944.490173,321.803314 954.841431,314.337372 963.177551,304.067169 
	C974.183594,290.507629 979.432678,274.707825 979.674011,257.560364 
	C979.786438,249.573563 978.179382,241.263138 975.729492,233.619354 
	C972.983704,225.051910 968.893311,216.832825 962.214294,210.242371 
	C959.505676,207.569687 959.112183,204.944580 962.455200,201.420395 
	C974.637329,188.578278 981.972839,173.380234 981.111938,155.277222 
	C980.793701,148.585373 979.197937,141.909851 977.735962,135.326569 
	C975.123901,123.564827 968.248291,113.906769 959.888733,105.916481 
	C946.428101,93.050446 929.661377,86.731133 910.991638,86.460228 
	C890.331543,86.160439 869.662781,86.499603 849.000427,86.292732 
	C844.149963,86.244156 842.623352,87.965263 842.655701,92.694267 
	C842.784546,111.524109 842.600037,130.355988 842.556091,149.187149 
	C842.419373,207.847107 842.290222,266.507111 842.168823,325.167084 
	C842.155090,331.805176 842.186646,331.813019 848.773743,331.811676 
	C868.438171,331.807709 888.117798,332.241669 907.759705,331.572571 
	C915.731995,331.301025 923.622253,328.622559 932.201233,326.627350 
M1035.286621,325.076233 
	C1042.435791,327.880463 1049.364746,331.994995 1056.775879,333.241241 
	C1078.315796,336.863403 1098.268555,332.968262 1114.836914,317.419373 
	C1130.405029,302.809174 1138.701904,284.950043 1138.705811,263.530334 
	C1138.712158,229.722321 1138.701660,195.911911 1138.277344,162.107803 
	C1138.159912,152.760468 1137.081299,143.340561 1135.491333,134.118164 
	C1133.573608,122.995071 1127.136963,113.923775 1119.940063,105.526138 
	C1112.904297,97.316513 1104.417114,90.696701 1093.985474,87.725449 
	C1085.175049,85.215988 1075.936768,82.902298 1066.892822,82.920975 
	C1059.244995,82.936775 1051.385742,85.817299 1044.006104,88.494125 
	C1028.840698,93.995132 1017.706116,104.635834 1009.801941,118.476166 
	C1003.406982,129.673798 1000.767334,141.889481 1000.834961,154.892090 
	C1001.019470,190.364502 1000.939270,225.839783 1000.696838,261.312103 
	C1000.613220,273.546143 1002.594849,285.047699 1008.219482,296.078918 
	C1014.398315,308.197235 1023.219177,317.580627 1035.286621,325.076233 
M799.377075,188.248383 
	C780.243713,188.249176 761.109558,188.336090 741.977478,188.179855 
	C738.037415,188.147690 736.620544,189.623627 736.653625,193.393356 
	C736.746826,204.040680 736.666931,214.689423 736.718872,225.337296 
	C736.725830,226.769730 737.098328,228.200363 737.310303,229.693329 
	C760.870178,229.693329 784.063599,229.693329 807.614014,229.693329 
	C807.747375,227.569778 807.950684,225.780106 807.957031,223.989731 
	C807.989990,214.672729 807.974854,205.355545 807.972473,196.038422 
	C807.970398,188.279694 807.967896,188.279694 799.377075,188.248383 
z"/>
<path fill="#FC4D19" opacity="1.000000" stroke="none" 
	d="
M535.795593,60.300461 
	C536.036621,61.226051 536.277649,62.151649 536.557739,63.854061 
	C536.692017,91.081215 536.787170,117.531548 536.500610,143.972229 
	C534.845642,143.643570 533.449036,143.559738 532.319458,142.966934 
	C525.586853,139.433609 518.914124,135.786026 512.224548,132.170761 
	C489.941986,120.128548 467.669769,108.067108 445.375763,96.046097 
	C431.678284,88.660378 417.972168,81.289497 404.201904,74.041275 
	C402.521881,73.156982 400.418610,73.076866 398.504822,72.616287 
	C398.498199,72.608498 398.508118,72.585884 398.497437,72.255135 
	C397.952179,71.304276 397.417633,70.684166 396.524017,70.100235 
	C394.403595,68.982132 392.721497,67.676842 390.865540,66.702789 
	C385.923401,64.108994 381.143707,58.529907 375.243195,61.871265 
	C367.733337,66.123970 361.108398,71.939407 353.747620,77.101227 
	C352.658508,78.152222 351.923676,79.183144 351.064301,80.411156 
	C350.759186,80.863678 350.549194,81.092018 349.957123,81.323074 
	C348.951721,82.410782 348.298889,83.468681 347.508911,84.754677 
	C347.163544,85.269951 346.955322,85.557129 346.424255,85.922699 
	C345.360962,87.279671 344.620575,88.558250 343.781250,90.146683 
	C343.254852,91.440430 342.827393,92.424301 342.062988,93.477356 
	C341.131927,94.675728 340.537842,95.804916 339.861389,97.152039 
	C339.778992,97.369980 339.554932,97.778572 339.284485,97.941132 
	C338.899292,98.899452 338.784515,99.695213 338.597229,100.697098 
	C338.524719,100.903236 338.297485,101.276520 337.961914,101.343773 
	C336.722656,103.941376 335.818909,106.471725 334.867767,109.300133 
	C334.746124,109.992554 334.671844,110.386917 334.287720,110.874336 
	C333.250183,112.972023 332.522522,114.976646 331.764954,117.282928 
	C331.676025,117.983566 331.617035,118.382538 331.338409,118.860756 
	C331.046265,119.627663 330.973755,120.315308 330.882080,121.351288 
	C330.724304,122.378838 330.585663,123.058067 330.141418,123.864136 
	C329.202911,126.659760 328.570038,129.328552 327.904480,132.375946 
	C327.734924,133.756210 327.598053,134.757874 327.222778,135.931488 
	C326.937866,137.402863 326.891327,138.702255 326.823059,140.378937 
	C326.698639,141.757324 326.596039,142.758408 326.173737,143.913879 
	C325.177612,151.040131 324.501160,158.011978 323.837799,165.451599 
	C323.841461,170.952316 323.831970,175.985245 323.611847,181.370544 
	C323.719116,191.858398 323.975586,201.996750 324.445862,212.125153 
	C324.495331,213.190445 325.805023,214.197220 326.585480,215.650208 
	C326.737976,218.045822 326.835022,220.022385 326.766724,222.272430 
	C326.921814,224.101593 327.242218,225.657242 327.625671,227.608337 
	C327.774384,229.336166 327.860138,230.668564 327.752502,232.296783 
	C326.391327,233.502426 325.189362,234.372238 324.064331,235.332214 
	C322.675690,236.517075 321.351013,237.776901 319.835388,239.178192 
	C319.443695,239.575562 319.193298,239.770874 318.593018,239.974701 
	C317.484192,240.974319 316.703217,241.937241 315.939178,242.928619 
	C315.956085,242.957077 315.899200,242.923218 315.607361,243.019073 
	C315.054169,243.856903 314.792816,244.598892 314.495239,245.402924 
	C314.458984,245.464951 314.338531,245.543350 314.032043,245.555084 
	C313.154877,246.049820 312.584167,246.532806 312.006714,247.007904 
	C312.000000,247.000000 312.015869,247.012970 311.712646,247.124573 
	C311.008636,248.207504 310.607880,249.178848 310.185699,250.150055 
	C310.164276,250.149933 310.174133,250.191605 309.825409,250.220215 
	C304.613098,254.879517 301.034851,260.253326 299.759003,267.351318 
	C299.328613,269.404388 298.941193,271.089172 298.240814,272.904633 
	C297.253998,276.021332 296.580170,279.007385 295.888855,282.462250 
	C295.746826,296.208771 295.622253,309.486481 295.196014,322.927490 
	C291.793732,329.049835 292.906189,333.884766 298.201172,336.447815 
	C315.456848,346.053131 332.436890,355.475586 349.416931,364.898041 
	C349.313293,365.266357 349.209686,365.634674 349.106049,366.002991 
	C347.351624,366.002991 345.597168,366.002930 343.842743,366.002991 
	C312.081573,366.003845 280.320404,365.992981 248.559235,366.019379 
	C244.241776,366.022949 239.924500,366.212860 235.230103,366.291077 
	C231.722733,364.957825 228.192245,364.192566 225.539749,362.236633 
	C218.573730,357.099854 216.681274,349.621460 216.687836,341.245880 
	C216.757919,251.916031 216.729950,162.586136 216.735245,73.256241 
	C216.735336,71.757561 216.770004,70.256111 216.863953,68.760681 
	C217.304565,61.747181 220.366959,56.156082 226.372284,51.978706 
	C227.418884,51.214104 228.127060,50.466099 229.138489,49.518776 
	C231.828247,48.779797 234.214737,48.240139 237.087036,47.789711 
	C238.570877,47.925243 239.568909,48.012024 240.566956,48.012085 
	C330.721802,48.017414 420.876678,48.018528 511.031525,47.997925 
	C512.854614,47.997509 514.677673,47.738686 516.876404,47.603642 
	C519.864502,48.358948 522.476990,49.111027 525.195923,50.171616 
	C526.003235,50.907677 526.704041,51.335220 527.637512,51.888222 
	C528.239685,52.384766 528.609253,52.755852 529.021301,53.448051 
	C529.978333,54.526455 530.892883,55.283737 532.023315,56.219158 
	C532.534851,56.866985 532.830505,57.336678 533.099304,58.093861 
	C533.689087,58.983955 534.305603,59.586555 535.136475,60.249008 
	C535.350708,60.308861 535.795593,60.300461 535.795593,60.300461 
z"/>
<path fill="#D74721" opacity="1.000000" stroke="none" 
	d="
M398.511475,72.624069 
	C400.418610,73.076866 402.521881,73.156982 404.201904,74.041275 
	C417.972168,81.289497 431.678284,88.660378 445.375763,96.046097 
	C467.669769,108.067108 489.941986,120.128548 512.224548,132.170761 
	C518.914124,135.786026 525.586853,139.433609 532.319458,142.966934 
	C533.449036,143.559738 534.845642,143.643570 536.600586,144.432739 
	C537.116211,204.048691 537.265686,263.194824 537.092590,322.339996 
	C537.055359,335.065247 539.696533,348.292786 532.213440,360.119202 
	C531.962280,360.359131 531.711121,360.599060 530.960083,361.068665 
	C529.658813,362.213989 528.857361,363.129639 528.055969,364.045288 
	C528.055969,364.045288 528.008057,363.997101 527.638550,364.068359 
	C519.114746,367.401245 510.673523,368.210297 501.898651,368.171051 
	C455.400452,367.962982 408.900879,368.070190 362.401764,368.074219 
	C322.569244,368.077698 282.736603,368.120575 242.904358,368.021027 
	C240.470551,368.014954 238.039490,366.910065 235.607132,366.316467 
	C239.924500,366.212860 244.241776,366.022949 248.559235,366.019379 
	C280.320404,365.992981 312.081573,366.003845 343.842743,366.002991 
	C345.597168,366.002930 347.351624,366.002991 349.106049,366.002991 
	C349.209686,365.634674 349.313293,365.266357 349.416931,364.898041 
	C332.436890,355.475586 315.456848,346.053131 298.528687,336.335083 
	C299.814240,335.293610 301.047974,334.547729 302.658447,333.640991 
	C310.012177,330.724579 317.252167,328.483978 323.902039,325.087830 
	C332.937958,320.473145 338.416748,313.107971 337.981079,302.312897 
	C337.825104,298.447937 337.956055,294.571381 337.956055,289.407257 
	C343.447662,295.274628 348.052551,300.039185 352.435699,304.999634 
	C353.392334,306.082275 354.152802,307.933350 353.993591,309.314056 
	C352.528290,322.021576 359.765991,331.565033 371.993347,333.259491 
	C383.038635,334.790192 392.796509,332.055420 399.545868,321.991608 
	C403.160370,316.602142 403.389221,311.505829 399.103058,307.462616 
	C404.716766,301.634857 410.326569,295.811157 415.936340,289.987427 
	C416.634094,292.052734 416.291016,293.454071 416.054871,294.873230 
	C414.571106,303.788574 415.134369,312.377594 421.069946,319.713745 
	C426.670563,326.635925 434.695740,329.874176 442.747009,332.779510 
	C447.279907,334.415192 452.076813,335.319244 458.165283,336.924866 
	C457.536316,315.736359 457.304718,295.790619 456.098511,275.903992 
	C455.799957,270.982147 452.926544,265.884705 450.196259,261.518646 
	C445.924286,254.687103 440.793488,248.389328 435.971375,241.906418 
	C433.497345,238.580292 430.417664,236.763382 425.647980,239.090576 
	C425.797668,236.895569 425.812958,235.268494 426.032776,233.669525 
	C427.839600,220.527664 430.584137,207.437439 431.264709,194.239792 
	C431.945312,181.040802 430.700623,167.729935 430.070374,154.479034 
	C429.231201,136.834534 425.137054,119.926468 418.603790,103.503021 
	C413.948029,91.799416 407.041290,81.724129 398.511475,72.624069 
z"/>
<path fill="#F84C19" opacity="1.000000" stroke="none" 
	d="
M931.875549,326.833313 
	C923.622253,328.622559 915.731995,331.301025 907.759705,331.572571 
	C888.117798,332.241669 868.438171,331.807709 848.773743,331.811676 
	C842.186646,331.813019 842.155090,331.805176 842.168823,325.167084 
	C842.290222,266.507111 842.419373,207.847107 842.556091,149.187149 
	C842.600037,130.355988 842.784546,111.524109 842.655701,92.694267 
	C842.623352,87.965263 844.149963,86.244156 849.000427,86.292732 
	C869.662781,86.499603 890.331543,86.160439 910.991638,86.460228 
	C929.661377,86.731133 946.428101,93.050446 959.888733,105.916481 
	C968.248291,113.906769 975.123901,123.564827 977.735962,135.326569 
	C979.197937,141.909851 980.793701,148.585373 981.111938,155.277222 
	C981.972839,173.380234 974.637329,188.578278 962.455200,201.420395 
	C959.112183,204.944580 959.505676,207.569687 962.214294,210.242371 
	C968.893311,216.832825 972.983704,225.051910 975.729492,233.619354 
	C978.179382,241.263138 979.786438,249.573563 979.674011,257.560364 
	C979.432678,274.707825 974.183594,290.507629 963.177551,304.067169 
	C954.841431,314.337372 944.490173,321.803314 931.875549,326.833313 
M929.995483,277.094574 
	C930.219421,276.358521 930.443359,275.622467 931.209900,274.392334 
	C931.974243,273.395966 932.931091,272.493866 933.472412,271.388306 
	C937.674500,262.806396 938.420532,254.282654 934.388245,245.181885 
	C929.993835,235.263702 922.769165,228.695175 912.396606,227.170242 
	C903.777649,225.903122 894.828003,226.885025 885.394836,226.704971 
	C884.935974,227.603394 884.082458,228.499222 884.076477,229.400635 
	C883.954102,247.881149 883.958313,266.362457 883.851501,284.843109 
	C883.835266,287.660706 884.546814,289.139801 887.757568,289.052032 
	C894.579041,288.865601 901.412476,289.093689 908.231812,288.869629 
	C909.843689,288.816681 911.418884,287.647705 913.653015,286.985260 
	C914.065186,286.875122 914.477295,286.765015 915.644531,286.770203 
	C917.802734,285.531952 919.960938,284.293732 922.548096,282.909454 
	C922.548096,282.909454 922.872559,282.593140 923.474792,282.626801 
	C924.103455,282.231415 924.732117,281.836029 925.424561,281.442139 
	C925.424561,281.442139 925.433838,281.378967 926.038574,281.185974 
	C926.339905,280.444031 926.641235,279.702087 926.996704,278.997070 
	C926.996704,278.997070 926.960571,278.942474 927.590454,278.935822 
	C928.187439,278.443176 928.784424,277.950531 929.467468,277.454559 
	C929.467468,277.454559 929.471497,277.368530 929.995483,277.094574 
M937.432373,164.739456 
	C937.773499,162.945908 938.177917,161.161758 938.445862,159.357330 
	C940.839417,143.233780 926.505859,128.822433 912.234741,128.563919 
	C904.423828,128.422409 896.608582,128.506577 888.795288,128.511887 
	C886.378418,128.513535 884.128967,128.551575 884.144348,132.056915 
	C884.218506,148.990616 884.177795,165.924835 884.177795,182.893265 
	C885.290283,183.235672 886.070496,183.685043 886.850037,183.683914 
	C896.321716,183.670135 905.805786,183.845612 915.258240,183.387802 
	C918.541321,183.228806 921.934143,181.838150 924.947693,180.345459 
	C931.148682,177.273849 934.155945,171.323807 937.432373,164.739456 
z"/>
<path fill="#F84C19" opacity="1.000000" stroke="none" 
	d="
M705.274902,273.092712 
	C705.212158,273.515320 705.149414,273.937927 704.952637,275.031891 
	C703.916992,279.149414 703.015320,282.595551 702.113647,286.041718 
	C700.766479,289.368042 699.554138,292.757172 698.040466,296.005951 
	C695.751404,300.918976 696.756104,303.638092 702.588806,308.910278 
	C707.243774,313.117981 711.885254,317.391968 716.017700,322.089600 
	C717.032654,323.243286 716.912659,326.998413 715.825623,328.140137 
	C708.270081,336.075867 700.373596,343.691528 692.468994,351.287598 
	C690.035767,353.625824 687.934692,354.792297 684.764526,351.100647 
	C678.638000,343.966492 671.755432,337.460938 664.911804,330.984955 
	C663.852905,329.983002 661.107910,329.878876 659.531982,330.444427 
	C643.981873,336.024902 628.602112,335.785370 613.044312,330.290649 
	C595.985352,324.265778 584.395508,312.209503 575.653931,297.064362 
	C573.266541,292.928162 572.266052,287.994171 570.607239,283.434204 
	C566.883606,273.197693 567.772705,262.543121 567.780640,251.978195 
	C567.803589,221.497055 568.058044,191.014603 567.827393,160.535645 
	C567.753845,150.814880 568.311707,141.208267 571.332520,132.061218 
	C575.997009,117.936867 584.063110,105.979286 595.894592,96.598267 
	C607.224731,87.614723 620.482117,83.403023 634.360413,82.878571 
	C643.164856,82.545853 652.291687,85.238281 660.941040,87.729805 
	C671.340454,90.725449 679.890442,97.171104 686.978333,105.365913 
	C693.384155,112.772148 699.245850,120.541908 701.864014,130.975693 
	C702.604919,132.801178 703.276062,133.913116 703.947266,135.025085 
	C703.982056,135.451035 704.016907,135.876999 704.072388,137.001343 
	C704.417786,139.466858 704.742554,141.233994 705.067383,143.001129 
	C705.097900,144.365448 705.128418,145.729767 705.134766,147.966171 
	C705.165405,190.256409 705.220154,231.674561 705.274902,273.092712 
M635.037292,292.262878 
	C640.309387,290.797272 646.209167,290.371582 650.722046,287.647980 
	C659.909058,282.103455 662.984741,272.893738 662.922852,262.346222 
	C662.712585,226.537872 662.677673,190.728500 662.542236,154.919647 
	C662.532227,152.260437 662.483948,149.566010 662.065979,146.949844 
	C660.204102,135.296890 651.001221,126.856773 640.139526,125.229294 
	C625.515808,123.038109 611.021729,135.060699 610.920593,149.731323 
	C610.649719,189.034805 610.788574,228.341721 610.959106,267.646423 
	C610.972778,270.790527 611.899841,274.243835 613.403076,277.009521 
	C617.896851,285.277161 624.836853,290.502533 635.037292,292.262878 
z"/>
<path fill="#F84C19" opacity="1.000000" stroke="none" 
	d="
M1034.963989,324.894012 
	C1023.219177,317.580627 1014.398315,308.197235 1008.219482,296.078918 
	C1002.594849,285.047699 1000.613220,273.546143 1000.696838,261.312103 
	C1000.939270,225.839783 1001.019470,190.364502 1000.834961,154.892090 
	C1000.767334,141.889481 1003.406982,129.673798 1009.801941,118.476166 
	C1017.706116,104.635834 1028.840698,93.995132 1044.006104,88.494125 
	C1051.385742,85.817299 1059.244995,82.936775 1066.892822,82.920975 
	C1075.936768,82.902298 1085.175049,85.215988 1093.985474,87.725449 
	C1104.417114,90.696701 1112.904297,97.316513 1119.940063,105.526138 
	C1127.136963,113.923775 1133.573608,122.995071 1135.491333,134.118164 
	C1137.081299,143.340561 1138.159912,152.760468 1138.277344,162.107803 
	C1138.701660,195.911911 1138.712158,229.722321 1138.705811,263.530334 
	C1138.701904,284.950043 1130.405029,302.809174 1114.836914,317.419373 
	C1098.268555,332.968262 1078.315796,336.863403 1056.775879,333.241241 
	C1049.364746,331.994995 1042.435791,327.880463 1034.963989,324.894012 
M1090.427490,281.398865 
	C1090.427490,281.398865 1090.423218,281.316864 1090.968628,280.990112 
	C1091.225952,279.974365 1091.483276,278.958649 1092.190918,277.357513 
	C1095.895996,272.966858 1095.945312,267.649170 1095.935425,262.345093 
	C1095.868774,226.695389 1095.792236,191.045700 1095.669312,155.396179 
	C1095.658936,152.407608 1095.450195,149.397598 1095.047729,146.436386 
	C1093.419312,134.455322 1082.685059,126.280167 1071.908691,125.160400 
	C1057.785645,123.692863 1043.734253,136.270721 1043.774902,150.536362 
	C1043.793457,157.032974 1043.722412,163.529770 1043.721680,170.026489 
	C1043.718628,201.344971 1043.810547,232.663803 1043.678589,263.981720 
	C1043.637451,273.746277 1047.561157,281.206177 1055.479858,287.522095 
	C1056.703003,288.233734 1057.926147,288.945374 1059.799561,290.003723 
	C1060.981689,290.286438 1062.163696,290.569153 1063.877075,291.348267 
	C1069.775635,294.510284 1080.041382,292.223114 1084.288574,286.679596 
	C1084.570923,286.492249 1084.796997,286.251953 1085.679810,285.975769 
	C1086.448975,284.980225 1087.218140,283.984680 1088.000000,283.000000 
	C1088.000000,283.000000 1087.989502,282.987152 1088.629150,282.997742 
	C1089.201416,282.468414 1089.773804,281.939087 1090.427490,281.398865 
z"/>
<path fill="#F74C19" opacity="1.000000" stroke="none" 
	d="
M1265.032593,278.012573 
	C1265.150879,278.695557 1265.269165,279.378540 1265.403320,280.770050 
	C1266.417480,283.473907 1267.415649,285.469269 1268.413696,287.464630 
	C1268.816528,289.433472 1269.219238,291.402313 1269.685059,294.098572 
	C1270.511841,296.205597 1271.275635,297.585175 1272.039307,298.964783 
	C1274.617310,307.467346 1277.004761,316.034088 1279.838135,324.450684 
	C1281.848755,330.422852 1281.132324,331.811432 1274.859863,331.814972 
	C1264.861450,331.820648 1254.861328,331.706512 1244.865601,331.869354 
	C1240.711304,331.937012 1238.574097,330.323059 1237.612793,326.233093 
	C1234.514526,313.052246 1231.298828,299.895874 1227.890625,286.791931 
	C1224.404541,273.388702 1220.671021,260.049194 1216.948608,246.708939 
	C1216.522461,245.181854 1215.472412,243.828857 1214.434448,241.872726 
	C1212.987427,246.521362 1211.537476,250.603165 1210.450439,254.779404 
	C1207.209106,267.233643 1204.164551,279.739044 1200.938232,292.197266 
	C1198.428101,301.889221 1195.808960,311.553772 1193.133667,321.201508 
	C1192.344971,324.045410 1191.454956,326.924011 1190.098022,329.518219 
	C1189.513916,330.634766 1187.632690,331.694183 1186.324951,331.713470 
	C1174.829468,331.883209 1163.329712,331.750793 1151.832397,331.845612 
	C1147.721436,331.879517 1147.533813,329.935516 1148.608521,326.746887 
	C1151.902222,316.973511 1155.066772,307.156647 1158.321533,297.370056 
	C1161.757202,287.039642 1165.257935,276.730957 1168.691284,266.399841 
	C1170.136719,262.050293 1171.518921,257.678833 1172.867432,253.298080 
	C1177.335449,238.783249 1182.283447,224.386215 1185.947388,209.670151 
	C1187.215332,204.577942 1185.859619,198.547592 1184.620361,193.196350 
	C1183.385620,187.865005 1180.592651,182.915253 1178.839355,177.678848 
	C1175.451416,167.559769 1172.506226,157.290558 1169.028564,147.203812 
	C1163.539551,131.283401 1157.760986,115.462822 1152.117676,99.595436 
	C1151.952881,99.132111 1151.964111,98.609222 1151.837524,98.128777 
	C1148.419800,85.155464 1147.473877,86.364021 1160.603149,86.370323 
	C1168.601807,86.374168 1176.607910,86.579865 1184.596313,86.292374 
	C1189.296509,86.123199 1191.747314,88.321526 1192.850586,92.448189 
	C1194.766602,99.615028 1196.352051,106.873306 1198.387085,114.004539 
	C1201.721680,125.690605 1205.380249,137.283966 1208.753662,148.959305 
	C1210.626099,155.440018 1212.197754,162.007660 1214.283691,169.984482 
	C1215.629761,167.042892 1216.624634,165.444763 1217.116211,163.704483 
	C1221.505859,148.164398 1225.761963,132.586594 1230.151001,117.046356 
	C1232.512939,108.683311 1235.245728,100.420883 1237.435669,92.015167 
	C1238.442993,88.148056 1240.468872,86.367760 1244.324585,86.370911 
	C1254.822876,86.379486 1265.321411,86.330231 1275.819336,86.397583 
	C1280.276855,86.426170 1281.325928,88.407051 1279.648682,92.413300 
	C1277.582275,97.348412 1275.675903,102.365364 1273.997192,107.445061 
	C1269.249878,121.811104 1264.731689,136.252899 1259.974609,150.615662 
	C1256.161255,162.128937 1252.181763,173.588150 1248.173828,185.035568 
	C1246.350830,190.242355 1244.186157,195.329865 1242.381470,200.542465 
	C1241.856812,202.057663 1241.523804,203.981216 1241.983643,205.439926 
	C1245.049805,215.166977 1248.369263,224.813934 1251.575684,234.497162 
	C1253.020874,238.861588 1254.480835,243.224243 1255.781372,247.632721 
	C1257.594849,253.780258 1259.265259,259.970001 1260.970581,266.927917 
	C1262.307129,271.146973 1263.669922,274.579773 1265.032593,278.012573 
z"/>
<path fill="#F44B19" opacity="1.000000" stroke="none" 
	d="
M799.853760,188.248474 
	C807.967896,188.279694 807.970398,188.279694 807.972473,196.038422 
	C807.974854,205.355545 807.989990,214.672729 807.957031,223.989731 
	C807.950684,225.780106 807.747375,227.569778 807.614014,229.693329 
	C784.063599,229.693329 760.870178,229.693329 737.310303,229.693329 
	C737.098328,228.200363 736.725830,226.769730 736.718872,225.337296 
	C736.666931,214.689423 736.746826,204.040680 736.653625,193.393356 
	C736.620544,189.623627 738.037415,188.147690 741.977478,188.179855 
	C761.109558,188.336090 780.243713,188.249176 799.853760,188.248474 
z"/>
<path fill="#4B1E0E" opacity="1.000000" stroke="none" 
	d="
M235.230103,366.291077 
	C238.039490,366.910065 240.470551,368.014954 242.904358,368.021027 
	C282.736603,368.120575 322.569244,368.077698 362.401764,368.074219 
	C408.900879,368.070190 455.400452,367.962982 501.898651,368.171051 
	C510.673523,368.210297 519.114746,367.401245 527.655701,364.097076 
	C526.401917,365.522644 524.979858,367.739410 523.073303,368.295502 
	C519.622070,369.302216 515.882202,369.690918 512.262329,369.693726 
	C422.329193,369.762878 332.395935,369.715424 242.462799,369.798889 
	C233.829025,369.806915 226.357941,367.607635 220.668533,360.862152 
	C216.232407,355.602570 214.151398,349.453308 214.151932,342.571930 
	C214.157364,271.791168 214.153000,201.010406 214.151596,130.229645 
	C214.151230,111.909920 214.434891,93.584106 214.041534,75.272835 
	C213.818649,64.897034 216.714447,56.388096 225.536316,50.001228 
	C225.933365,49.942165 226.163544,50.167973 226.127777,50.471451 
	C226.072617,51.181725 226.053223,51.588516 226.033844,51.995312 
	C220.366959,56.156082 217.304565,61.747181 216.863953,68.760681 
	C216.770004,70.256111 216.735336,71.757561 216.735245,73.256241 
	C216.729950,162.586136 216.757919,251.916031 216.687836,341.245880 
	C216.681274,349.621460 218.573730,357.099854 225.539749,362.236633 
	C228.192245,364.192566 231.722733,364.957825 235.230103,366.291077 
z"/>
<path fill="#4B1E0E" opacity="1.000000" stroke="none" 
	d="
M532.551758,360.060608 
	C539.696533,348.292786 537.055359,335.065247 537.092590,322.339996 
	C537.265686,263.194824 537.116211,204.048691 536.982300,144.442383 
	C536.787170,117.531548 536.692017,91.081215 536.656250,64.199196 
	C537.674500,65.182808 538.839600,66.507164 539.518066,68.046074 
	C539.954285,69.035500 539.710632,70.340492 539.710754,71.504044 
	C539.717285,162.195755 539.731262,252.887451 539.690002,343.579163 
	C539.687134,349.907074 537.433716,355.470581 532.551758,360.060608 
z"/>
<path fill="#D74721" opacity="1.000000" stroke="none" 
	d="
M516.500732,47.600414 
	C514.677673,47.738686 512.854614,47.997509 511.031525,47.997925 
	C420.876678,48.018528 330.721802,48.017414 240.566956,48.012085 
	C239.568909,48.012024 238.570877,47.925243 237.083984,47.486038 
	C236.727859,46.713264 236.860580,46.333393 236.993286,45.953526 
	C329.689117,45.945850 422.384918,45.938179 515.707397,46.176804 
	C516.389587,46.815540 516.445190,47.207977 516.500732,47.600414 
z"/>
<path fill="#36170C" opacity="1.000000" stroke="none" 
	d="
M705.627319,272.983704 
	C705.220154,231.674561 705.165405,190.256409 705.202026,148.370285 
	C706.147400,149.489075 707.740967,151.072922 707.747253,152.663025 
	C707.898987,191.148773 707.904175,229.635254 707.813293,268.121307 
	C707.809570,269.707214 706.617920,271.290283 705.627319,272.983704 
z"/>
<path fill="#4B1E0E" opacity="1.000000" stroke="none" 
	d="
M516.876404,47.603642 
	C516.445190,47.207977 516.389587,46.815540 516.171875,46.168427 
	C522.495728,44.476189 526.965149,47.781689 530.645142,52.644440 
	C529.895752,53.061642 529.437317,53.094292 528.978821,53.126938 
	C528.609253,52.755852 528.239685,52.384766 527.583801,51.548466 
	C526.561462,50.676533 525.825439,50.269814 525.089417,49.863098 
	C522.476990,49.111027 519.864502,48.358948 516.876404,47.603642 
z"/>
<path fill="#4B1E0E" opacity="1.000000" stroke="none" 
	d="
M236.686264,45.796944 
	C236.860580,46.333393 236.727859,46.713264 236.598190,47.396805 
	C234.214737,48.240139 231.828247,48.779797 228.804947,49.583271 
	C227.499939,49.954052 226.831741,50.061012 226.163544,50.167973 
	C226.163544,50.167973 225.933365,49.942165 225.817688,49.828896 
	C229.261093,48.357204 232.820175,46.998783 236.686264,45.796944 
z"/>
<path fill="#602310" opacity="1.000000" stroke="none" 
	d="
M1265.169067,277.707245 
	C1263.669922,274.579773 1262.307129,271.146973 1261.016479,267.326904 
	C1265.358521,269.272644 1264.633667,273.618744 1265.169067,277.707245 
z"/>
<path fill="#36170C" opacity="1.000000" stroke="none" 
	d="
M702.456055,285.947571 
	C703.015320,282.595551 703.916992,279.149414 704.972290,275.352448 
	C706.363159,279.050659 705.979675,282.752045 702.456055,285.947571 
z"/>
<path fill="#602310" opacity="1.000000" stroke="none" 
	d="
M1268.475830,287.086426 
	C1267.415649,285.469269 1266.417480,283.473907 1265.464844,281.111389 
	C1266.519531,282.732208 1267.528687,284.720184 1268.475830,287.086426 
z"/>
<path fill="#4B1E0E" opacity="1.000000" stroke="none" 
	d="
M533.126099,57.806370 
	C532.830505,57.336678 532.534851,56.866985 531.966309,55.871326 
	C531.611694,55.124874 531.530029,54.904392 531.545898,54.504822 
	C531.643433,54.325733 531.925659,54.031353 531.925659,54.031349 
	C533.262756,55.857712 534.599854,57.684078 535.866211,59.905453 
	C535.795593,60.300461 535.350708,60.308861 535.112183,59.912975 
	C534.291138,58.946850 533.708618,58.376610 533.126099,57.806370 
z"/>
<path fill="#36170C" opacity="1.000000" stroke="none" 
	d="
M705.244690,142.700256 
	C704.742554,141.233994 704.417786,139.466858 704.161987,137.309875 
	C704.627991,138.746475 705.025024,140.572922 705.244690,142.700256 
z"/>
<path fill="#36170C" opacity="1.000000" stroke="none" 
	d="
M704.112183,134.771973 
	C703.276062,133.913116 702.604919,132.801178 701.972839,131.337189 
	C702.766968,132.163071 703.522034,133.340973 704.112183,134.771973 
z"/>
<path fill="#602310" opacity="1.000000" stroke="none" 
	d="
M1272.093384,298.591064 
	C1271.275635,297.585175 1270.511841,296.205597 1269.808594,294.458618 
	C1270.628418,295.466614 1271.387939,296.841980 1272.093384,298.591064 
z"/>
<path fill="#4B1E0E" opacity="1.000000" stroke="none" 
	d="
M528.387085,364.025909 
	C528.857361,363.129639 529.658813,362.213989 530.798340,361.273193 
	C530.330322,362.167511 529.524231,363.087006 528.387085,364.025909 
z"/>
<path fill="#D74721" opacity="1.000000" stroke="none" 
	d="
M531.448303,54.683907 
	C531.530029,54.904392 531.611694,55.124874 531.750366,55.693192 
	C530.892883,55.283737 529.978333,54.526455 529.021301,53.448055 
	C529.437317,53.094292 529.895752,53.061642 530.696411,52.985748 
	C531.038513,52.942505 531.127625,53.364864 531.199646,53.699013 
	C531.391418,54.233578 531.450317,54.450493 531.448303,54.683907 
z"/>
<path fill="#FC4D19" opacity="1.000000" stroke="none" 
	d="
M531.545898,54.504822 
	C531.450317,54.450493 531.391418,54.233578 531.153259,53.909805 
	C531.034851,53.786442 531.490417,53.872368 531.708008,53.951859 
	C531.925659,54.031353 531.643433,54.325733 531.545898,54.504822 
z"/>
<path fill="#FDFBE2" opacity="1.000000" stroke="none" 
	d="
M398.504822,72.616287 
	C407.041290,81.724129 413.948029,91.799416 418.603790,103.503021 
	C425.137054,119.926468 429.231201,136.834534 430.070374,154.479034 
	C430.700623,167.729935 431.945312,181.040802 431.264709,194.239792 
	C430.584137,207.437439 427.839600,220.527664 426.032776,233.669525 
	C425.812958,235.268494 425.797668,236.895569 425.647980,239.090576 
	C430.417664,236.763382 433.497345,238.580292 435.971375,241.906418 
	C440.793488,248.389328 445.924286,254.687103 450.196259,261.518646 
	C452.926544,265.884705 455.799957,270.982147 456.098511,275.903992 
	C457.304718,295.790619 457.536316,315.736359 458.165283,336.924866 
	C452.076813,335.319244 447.279907,334.415192 442.747009,332.779510 
	C434.695740,329.874176 426.670563,326.635925 421.069946,319.713745 
	C415.134369,312.377594 414.571106,303.788574 416.054871,294.873230 
	C416.291016,293.454071 416.634094,292.052734 415.936340,289.987427 
	C410.326569,295.811157 404.716766,301.634857 399.103058,307.462616 
	C403.389221,311.505829 403.160370,316.602142 399.545868,321.991608 
	C392.796509,332.055420 383.038635,334.790192 371.993347,333.259491 
	C359.765991,331.565033 352.528290,322.021576 353.993591,309.314056 
	C354.152802,307.933350 353.392334,306.082275 352.435699,304.999634 
	C348.052551,300.039185 343.447662,295.274628 337.956055,289.407257 
	C337.956055,294.571381 337.825104,298.447937 337.981079,302.312897 
	C338.416748,313.107971 332.937958,320.473145 323.902039,325.087830 
	C317.252167,328.483978 310.012177,330.724579 302.261292,333.553345 
	C299.776550,333.626617 298.065704,333.626617 296.172607,333.626617 
	C295.935791,329.815491 295.716736,326.289856 295.497681,322.764191 
	C295.622253,309.486481 295.746826,296.208771 296.190186,282.259094 
	C297.190552,278.649414 297.872162,275.711700 298.553772,272.773987 
	C298.941193,271.089172 299.328613,269.404388 300.069580,267.190674 
	C303.673462,261.171692 306.923798,255.681656 310.174133,250.191589 
	C310.174133,250.191605 310.164276,250.149933 310.490479,250.022736 
	C311.216431,248.934662 311.616150,247.973816 312.015869,247.012970 
	C312.015869,247.012970 312.000000,247.000000 312.316956,247.015930 
	C313.202118,246.535690 313.770325,246.039536 314.338531,245.543365 
	C314.338531,245.543350 314.458984,245.464951 314.783813,245.299179 
	C315.372162,244.396683 315.635681,243.659943 315.899200,242.923218 
	C315.899200,242.923218 315.956085,242.957077 316.286285,242.915405 
	C317.384613,241.895157 318.152740,240.916565 318.920898,239.937988 
	C319.193298,239.770874 319.443695,239.575562 320.230927,239.215302 
	C324.964874,236.126862 327.052338,239.219147 329.047607,242.578308 
	C329.574707,242.275558 330.101807,241.972794 330.628937,241.670029 
	C329.734589,238.447006 328.840240,235.223984 327.945892,232.000961 
	C327.860138,230.668564 327.774384,229.336166 327.735718,227.232086 
	C327.499207,224.973251 327.215637,223.486084 326.932068,221.998932 
	C326.835022,220.022385 326.737976,218.045822 326.692505,215.205750 
	C326.302063,204.566940 325.914398,194.788528 325.355194,185.019928 
	C325.277435,183.661224 324.354309,182.350906 323.822479,181.018188 
	C323.831970,175.985245 323.841461,170.952316 324.123901,165.213943 
	C325.095734,157.592178 325.794586,150.675827 326.493408,143.759491 
	C326.596039,142.758408 326.698639,141.757324 327.029755,140.073669 
	C327.325897,138.180557 327.393524,136.970047 327.461182,135.759521 
	C327.598053,134.757874 327.734924,133.756210 328.215515,132.193451 
	C329.188507,129.000671 329.817749,126.368980 330.447021,123.737305 
	C330.585663,123.058067 330.724304,122.378838 331.099731,121.129654 
	C331.410339,119.966957 331.484161,119.374229 331.558014,118.781502 
	C331.617035,118.382538 331.676025,117.983566 332.074219,117.107040 
	C333.141449,114.680092 333.869507,112.730682 334.597595,110.781281 
	C334.671844,110.386917 334.746124,109.992554 335.136078,109.069962 
	C336.400360,106.120003 337.348938,103.698265 338.297485,101.276520 
	C338.297485,101.276520 338.524719,100.903236 338.846466,100.515228 
	C339.297119,99.344337 339.426025,98.561455 339.554932,97.778572 
	C339.554932,97.778572 339.778992,97.369980 340.199768,97.082367 
	C341.213715,95.665894 341.806854,94.537041 342.399963,93.408180 
	C342.827393,92.424301 343.254852,91.440430 344.113068,90.057503 
	C345.278229,88.387070 346.012665,87.115685 346.747101,85.844299 
	C346.955322,85.557129 347.163544,85.269951 347.829559,84.671585 
	C348.961487,83.338028 349.635620,82.315659 350.309723,81.293282 
	C350.549194,81.092018 350.759186,80.863678 351.376190,80.326744 
	C352.575775,79.057213 353.338867,78.069183 354.101959,77.081146 
	C361.108398,71.939407 367.733337,66.123970 375.243195,61.871265 
	C381.143707,58.529907 385.923401,64.108994 390.865540,66.702789 
	C392.721497,67.676842 394.403595,68.982132 396.527802,70.427170 
	C397.429810,71.340576 397.968964,71.963234 398.508118,72.585884 
	C398.508118,72.585884 398.498199,72.608498 398.504822,72.616287 
M369.919098,227.436493 
	C369.100067,239.203949 368.123260,250.963058 367.500549,262.740906 
	C366.656433,278.706573 366.205750,294.693268 365.336700,310.657349 
	C364.969788,317.397278 369.664764,321.458893 376.581268,321.302460 
	C384.023529,321.134064 388.977295,317.078552 388.750641,310.482361 
	C388.546021,304.527100 387.487518,298.600586 387.294739,292.645569 
	C386.249420,260.351440 385.301758,228.053665 384.553345,195.751755 
	C384.511353,193.939499 386.110077,191.481873 387.682709,190.343567 
	C394.913818,185.109497 399.719482,178.172119 401.460938,169.628998 
	C403.981537,157.263535 404.026245,144.928543 398.007019,133.219406 
	C390.863220,119.322548 374.855804,113.747978 362.879272,126.888885 
	C353.968597,136.665833 351.642303,148.552383 352.598053,161.230118 
	C352.905182,165.304337 354.319092,169.322174 355.456116,173.300247 
	C357.058838,178.907593 359.734924,183.992615 364.722626,187.272125 
	C370.004272,190.744873 372.038727,194.990829 371.198547,201.525482 
	C370.140564,209.754303 370.328064,218.143250 369.919098,227.436493 
z"/>
<path fill="#FF9667" opacity="1.000000" stroke="none" 
	d="
M323.611847,181.370544 
	C324.354309,182.350906 325.277435,183.661224 325.355194,185.019928 
	C325.914398,194.788528 326.302063,204.566940 326.637085,214.786682 
	C325.805023,214.197220 324.495331,213.190445 324.445862,212.125153 
	C323.975586,201.996750 323.719116,191.858398 323.611847,181.370544 
z"/>
<path fill="#FF9667" opacity="1.000000" stroke="none" 
	d="
M326.173737,143.913879 
	C325.794586,150.675827 325.095734,157.592178 324.110779,164.746185 
	C324.501160,158.011978 325.177612,151.040131 326.173737,143.913879 
z"/>
<path fill="#FF9667" opacity="1.000000" stroke="none" 
	d="
M327.752502,232.296783 
	C328.840240,235.223984 329.734589,238.447006 330.628937,241.670029 
	C330.101807,241.972794 329.574707,242.275558 329.047607,242.578308 
	C327.052338,239.219147 324.964874,236.126862 320.394226,239.041443 
	C321.351013,237.776901 322.675690,236.517075 324.064331,235.332214 
	C325.189362,234.372238 326.391327,233.502426 327.752502,232.296783 
z"/>
<path fill="#FF9667" opacity="1.000000" stroke="none" 
	d="
M295.196014,322.927490 
	C295.716736,326.289856 295.935791,329.815491 296.172607,333.626617 
	C298.065704,333.626617 299.776550,333.626617 301.884552,333.714233 
	C301.047974,334.547729 299.814240,335.293610 298.253052,336.152222 
	C292.906189,333.884766 291.793732,329.049835 295.196014,322.927490 
z"/>
<path fill="#FF9667" opacity="1.000000" stroke="none" 
	d="
M309.825378,250.220215 
	C306.923798,255.681656 303.673462,261.171692 300.112549,266.822418 
	C301.034851,260.253326 304.613098,254.879517 309.825378,250.220215 
z"/>
<path fill="#FF9667" opacity="1.000000" stroke="none" 
	d="
M298.240814,272.904633 
	C297.872162,275.711700 297.190552,278.649414 296.207642,281.790283 
	C296.580170,279.007385 297.253998,276.021332 298.240814,272.904633 
z"/>
<path fill="#FF9667" opacity="1.000000" stroke="none" 
	d="
M330.141388,123.864136 
	C329.817749,126.368980 329.188507,129.000671 328.248199,131.814850 
	C328.570038,129.328552 329.202911,126.659760 330.141388,123.864136 
z"/>
<path fill="#FF9667" opacity="1.000000" stroke="none" 
	d="
M337.961914,101.343781 
	C337.348938,103.698265 336.400360,106.120003 335.183472,108.771912 
	C335.818909,106.471725 336.722656,103.941376 337.961914,101.343781 
z"/>
<path fill="#FF9667" opacity="1.000000" stroke="none" 
	d="
M334.287720,110.874336 
	C333.869507,112.730682 333.141449,114.680092 332.104126,116.805382 
	C332.522522,114.976646 333.250183,112.972023 334.287720,110.874336 
z"/>
<path fill="#FF9667" opacity="1.000000" stroke="none" 
	d="
M346.424255,85.922691 
	C346.012665,87.115685 345.278229,88.387070 344.212006,89.747635 
	C344.620575,88.558250 345.360962,87.279671 346.424255,85.922691 
z"/>
<path fill="#FF9667" opacity="1.000000" stroke="none" 
	d="
M326.766724,222.272430 
	C327.215637,223.486084 327.499207,224.973251 327.672699,226.836655 
	C327.242218,225.657242 326.921814,224.101593 326.766724,222.272430 
z"/>
<path fill="#FF9667" opacity="1.000000" stroke="none" 
	d="
M342.062988,93.477371 
	C341.806854,94.537041 341.213715,95.665894 340.282166,96.864426 
	C340.537842,95.804916 341.131927,94.675728 342.062988,93.477371 
z"/>
<path fill="#FF9667" opacity="1.000000" stroke="none" 
	d="
M327.222778,135.931488 
	C327.393524,136.970047 327.325897,138.180557 327.051514,139.696365 
	C326.891327,138.702255 326.937866,137.402863 327.222778,135.931488 
z"/>
<path fill="#FF9667" opacity="1.000000" stroke="none" 
	d="
M318.593018,239.974701 
	C318.152740,240.916565 317.384613,241.895157 316.269379,242.886948 
	C316.703217,241.937241 317.484192,240.974319 318.593018,239.974701 
z"/>
<path fill="#FF9667" opacity="1.000000" stroke="none" 
	d="
M353.747620,77.101227 
	C353.338867,78.069183 352.575775,79.057213 351.500763,80.129654 
	C351.923676,79.183144 352.658508,78.152222 353.747620,77.101227 
z"/>
<path fill="#FF9667" opacity="1.000000" stroke="none" 
	d="
M349.957123,81.323074 
	C349.635620,82.315659 348.961487,83.338028 347.966736,84.443497 
	C348.298889,83.468681 348.951721,82.410782 349.957123,81.323074 
z"/>
<path fill="#D74721" opacity="1.000000" stroke="none" 
	d="
M226.127777,50.471451 
	C226.831741,50.061012 227.499939,49.954052 228.501678,49.782593 
	C228.127060,50.466099 227.418884,51.214104 226.372269,51.978706 
	C226.053223,51.588516 226.072617,51.181725 226.127777,50.471451 
z"/>
<path fill="#D74721" opacity="1.000000" stroke="none" 
	d="
M533.099304,58.093861 
	C533.708618,58.376610 534.291138,58.946850 534.897949,59.853123 
	C534.305603,59.586555 533.689087,58.983955 533.099304,58.093861 
z"/>
<path fill="#FF9667" opacity="1.000000" stroke="none" 
	d="
M311.712646,247.124573 
	C311.616150,247.973816 311.216431,248.934662 310.511902,250.022858 
	C310.607880,249.178848 311.008636,248.207504 311.712646,247.124573 
z"/>
<path fill="#FF9667" opacity="1.000000" stroke="none" 
	d="
M314.032043,245.555099 
	C313.770325,246.039536 313.202118,246.535690 312.323669,247.023834 
	C312.584167,246.532806 313.154877,246.049820 314.032043,245.555099 
z"/>
<path fill="#FF9667" opacity="1.000000" stroke="none" 
	d="
M315.607361,243.019073 
	C315.635681,243.659943 315.372162,244.396683 314.820038,245.237152 
	C314.792816,244.598892 315.054169,243.856903 315.607361,243.019073 
z"/>
<path fill="#D74721" opacity="1.000000" stroke="none" 
	d="
M398.497437,72.255135 
	C397.968964,71.963234 397.429810,71.340576 396.886871,70.390991 
	C397.417633,70.684166 397.952179,71.304276 398.497437,72.255135 
z"/>
<path fill="#D74721" opacity="1.000000" stroke="none" 
	d="
M525.195923,50.171616 
	C525.825439,50.269814 526.561462,50.676533 527.351196,51.423004 
	C526.704041,51.335220 526.003235,50.907677 525.195923,50.171616 
z"/>
<path fill="#FF9667" opacity="1.000000" stroke="none" 
	d="
M339.284485,97.941132 
	C339.426025,98.561455 339.297119,99.344337 338.918976,100.309097 
	C338.784515,99.695213 338.899292,98.899452 339.284485,97.941132 
z"/>
<path fill="#FF9667" opacity="1.000000" stroke="none" 
	d="
M331.338379,118.860756 
	C331.484161,119.374229 331.410339,119.966957 331.118866,120.781326 
	C330.973755,120.315308 331.046265,119.627663 331.338379,118.860756 
z"/>
<path fill="#080402" opacity="1.000000" stroke="none" 
	d="
M937.310791,165.122070 
	C934.155945,171.323807 931.148682,177.273849 924.947693,180.345459 
	C921.934143,181.838150 918.541321,183.228806 915.258240,183.387802 
	C905.805786,183.845612 896.321716,183.670135 886.850037,183.683914 
	C886.070496,183.685043 885.290283,183.235672 884.177795,182.893265 
	C884.177795,165.924835 884.218506,148.990616 884.144348,132.056915 
	C884.128967,128.551575 886.378418,128.513535 888.795288,128.511887 
	C896.608582,128.506577 904.423828,128.422409 912.234741,128.563919 
	C926.505859,128.822433 940.839417,143.233780 938.445862,159.357330 
	C938.177917,161.161758 937.773499,162.945908 937.310791,165.122070 
z"/>
<path fill="#030101" opacity="1.000000" stroke="none" 
	d="
M914.889465,286.654846 
	C914.477295,286.765015 914.065186,286.875122 913.006836,286.792175 
	C905.588074,286.694275 898.803345,286.574432 892.047119,286.957092 
	C887.207642,287.231201 885.743164,285.367065 885.809998,280.641418 
	C886.063599,262.720398 885.981445,244.794647 886.024902,226.870667 
	C894.828003,226.885025 903.777649,225.903122 912.396606,227.170242 
	C922.769165,228.695175 929.993835,235.263702 934.388245,245.181885 
	C938.420532,254.282654 937.674500,262.806396 933.472412,271.388306 
	C932.931091,272.493866 931.974243,273.395966 930.668823,274.774170 
	C929.908997,275.893555 929.690247,276.631042 929.471558,277.368530 
	C929.471497,277.368530 929.467468,277.454559 929.108215,277.448120 
	C928.152832,277.941925 927.556702,278.442200 926.960571,278.942474 
	C926.960571,278.942474 926.996704,278.997070 926.667236,279.078430 
	C926.036438,279.899506 925.735107,280.639221 925.433838,281.378967 
	C925.433838,281.378967 925.424561,281.442139 925.090759,281.388824 
	C924.128845,281.754700 923.500671,282.173920 922.872559,282.593140 
	C922.872559,282.593140 922.548096,282.909454 921.961487,282.947662 
	C919.213074,284.208862 917.051270,285.431854 914.889465,286.654846 
z"/>
<path fill="#39190D" opacity="1.000000" stroke="none" 
	d="
M885.709839,226.787811 
	C885.981445,244.794647 886.063599,262.720398 885.809998,280.641418 
	C885.743164,285.367065 887.207642,287.231201 892.047119,286.957092 
	C898.803345,286.574432 905.588074,286.694275 912.685791,286.795593 
	C911.418884,287.647705 909.843689,288.816681 908.231812,288.869629 
	C901.412476,289.093689 894.579041,288.865601 887.757568,289.052032 
	C884.546814,289.139801 883.835266,287.660706 883.851501,284.843109 
	C883.958313,266.362457 883.954102,247.881149 884.076477,229.400635 
	C884.082458,228.499222 884.935974,227.603394 885.709839,226.787811 
z"/>
<path fill="#39190D" opacity="1.000000" stroke="none" 
	d="
M915.266968,286.712524 
	C917.051270,285.431854 919.213074,284.208862 921.746948,283.020691 
	C919.960938,284.293732 917.802734,285.531952 915.266968,286.712524 
z"/>
<path fill="#39190D" opacity="1.000000" stroke="none" 
	d="
M925.736206,281.282471 
	C925.735107,280.639221 926.036438,279.899506 926.640137,279.059937 
	C926.641235,279.702087 926.339905,280.444031 925.736206,281.282471 
z"/>
<path fill="#39190D" opacity="1.000000" stroke="none" 
	d="
M923.173706,282.609985 
	C923.500671,282.173920 924.128845,281.754700 925.058838,281.388062 
	C924.732117,281.836029 924.103455,282.231415 923.173706,282.609985 
z"/>
<path fill="#39190D" opacity="1.000000" stroke="none" 
	d="
M927.275513,278.939148 
	C927.556702,278.442200 928.152832,277.941925 929.065186,277.449768 
	C928.784424,277.950531 928.187439,278.443176 927.275513,278.939148 
z"/>
<path fill="#39190D" opacity="1.000000" stroke="none" 
	d="
M929.733521,277.231567 
	C929.690247,276.631042 929.908997,275.893555 930.397522,275.021240 
	C930.443359,275.622467 930.219421,276.358521 929.733521,277.231567 
z"/>
<path fill="#030101" opacity="1.000000" stroke="none" 
	d="
M634.699585,292.071533 
	C624.836853,290.502533 617.896851,285.277161 613.403076,277.009521 
	C611.899841,274.243835 610.972778,270.790527 610.959106,267.646423 
	C610.788574,228.341721 610.649719,189.034805 610.920593,149.731323 
	C611.021729,135.060699 625.515808,123.038109 640.139526,125.229294 
	C651.001221,126.856773 660.204102,135.296890 662.065979,146.949844 
	C662.483948,149.566010 662.532227,152.260437 662.542236,154.919647 
	C662.677673,190.728500 662.712585,226.537872 662.922852,262.346222 
	C662.984741,272.893738 659.909058,282.103455 650.722046,287.647980 
	C646.209167,290.371582 640.309387,290.797272 634.699585,292.071533 
z"/>
<path fill="#030101" opacity="1.000000" stroke="none" 
	d="
M1063.345825,290.851868 
	C1062.163696,290.569153 1060.981689,290.286438 1059.401733,289.515442 
	C1057.766357,288.312500 1056.528687,287.597778 1055.291138,286.883087 
	C1047.561157,281.206177 1043.637451,273.746277 1043.678589,263.981720 
	C1043.810547,232.663803 1043.718628,201.344971 1043.721680,170.026489 
	C1043.722412,163.529770 1043.793457,157.032974 1043.774902,150.536362 
	C1043.734253,136.270721 1057.785645,123.692863 1071.908691,125.160400 
	C1082.685059,126.280167 1093.419312,134.455322 1095.047729,146.436386 
	C1095.450195,149.397598 1095.658936,152.407608 1095.669312,155.396179 
	C1095.792236,191.045700 1095.868774,226.695389 1095.935425,262.345093 
	C1095.945312,267.649170 1095.895996,272.966858 1091.679077,277.809753 
	C1090.919189,279.280304 1090.671265,280.298584 1090.423340,281.316864 
	C1090.423218,281.316864 1090.427490,281.398865 1090.067627,281.400238 
	C1089.135010,281.930145 1088.562256,282.458649 1087.989502,282.987152 
	C1087.989502,282.987152 1088.000000,283.000000 1087.655029,283.020325 
	C1086.529053,284.013306 1085.747925,284.985962 1084.966797,285.958679 
	C1084.796997,286.251953 1084.570923,286.492249 1083.690308,286.794373 
	C1079.155884,288.010956 1075.258179,289.291626 1071.269653,290.150391 
	C1068.697266,290.704315 1065.991699,290.639404 1063.345825,290.851868 
z"/>
<path fill="#481D0E" opacity="1.000000" stroke="none" 
	d="
M1063.611450,291.100067 
	C1065.991699,290.639404 1068.697266,290.704315 1071.269653,290.150391 
	C1075.258179,289.291626 1079.155884,288.010956 1083.466919,286.904724 
	C1080.041382,292.223114 1069.775635,294.510284 1063.611450,291.100067 
z"/>
<path fill="#481D0E" opacity="1.000000" stroke="none" 
	d="
M1055.385498,287.202576 
	C1056.528687,287.597778 1057.766357,288.312500 1059.076660,289.342102 
	C1057.926147,288.945374 1056.703003,288.233734 1055.385498,287.202576 
z"/>
<path fill="#481D0E" opacity="1.000000" stroke="none" 
	d="
M1085.323242,285.967224 
	C1085.747925,284.985962 1086.529053,284.013306 1087.648682,283.014893 
	C1087.218140,283.984680 1086.448975,284.980225 1085.323242,285.967224 
z"/>
<path fill="#481D0E" opacity="1.000000" stroke="none" 
	d="
M1090.696045,281.153503 
	C1090.671265,280.298584 1090.919189,279.280304 1091.453857,278.102478 
	C1091.483276,278.958649 1091.225952,279.974365 1090.696045,281.153503 
z"/>
<path fill="#481D0E" opacity="1.000000" stroke="none" 
	d="
M1088.309326,282.992432 
	C1088.562256,282.458649 1089.135010,281.930145 1090.026855,281.405701 
	C1089.773804,281.939087 1089.201416,282.468414 1088.309326,282.992432 
z"/>
<path fill="#DB4F29" opacity="1.000000" stroke="none" 
	d="
M369.948639,226.949799 
	C370.328064,218.143250 370.140564,209.754303 371.198547,201.525482 
	C372.038727,194.990829 370.004272,190.744873 364.722626,187.272125 
	C359.734924,183.992615 357.058838,178.907593 355.456116,173.300247 
	C354.319092,169.322174 352.905182,165.304337 352.598053,161.230118 
	C351.642303,148.552383 353.968597,136.665833 362.879272,126.888885 
	C374.855804,113.747978 390.863220,119.322548 398.007019,133.219406 
	C404.026245,144.928543 403.981537,157.263535 401.460938,169.628998 
	C399.719482,178.172119 394.913818,185.109497 387.682709,190.343567 
	C386.110077,191.481873 384.511353,193.939499 384.553345,195.751755 
	C385.301758,228.053665 386.249420,260.351440 387.294739,292.645569 
	C387.487518,298.600586 388.546021,304.527100 388.750641,310.482361 
	C388.977295,317.078552 384.023529,321.134064 376.581268,321.302460 
	C369.664764,321.458893 364.969788,317.397278 365.336700,310.657349 
	C366.205750,294.693268 366.656433,278.706573 367.500549,262.740906 
	C368.123260,250.963058 369.100067,239.203949 369.948639,226.949799 
M360.232483,159.027756 
	C362.010254,153.053940 363.329498,146.891739 365.686218,141.155807 
	C368.399689,134.551727 373.658875,130.792191 381.134216,130.824280 
	C382.797729,130.831421 384.461273,130.825348 386.124817,130.825348 
	C386.215637,130.154388 386.306427,129.483429 386.397247,128.812469 
	C384.162933,128.232651 381.959900,127.382408 379.688904,127.120018 
	C370.040741,126.005272 363.317535,133.416321 359.716492,142.398682 
	C356.393677,150.687119 357.310150,159.386215 359.011932,168.741180 
	C360.398041,171.678970 361.784180,174.616760 363.170288,177.554565 
	C363.598724,177.328552 364.027130,177.102539 364.455536,176.876526 
	C363.518707,171.994370 362.630524,167.101929 361.600586,162.239487 
	C361.413544,161.356323 360.646545,160.595963 360.232483,159.027756 
z"/>
<path fill="#F5D1AF" opacity="1.000000" stroke="none" 
	d="
M359.044922,167.964447 
	C357.310150,159.386215 356.393677,150.687119 359.716492,142.398682 
	C363.317535,133.416321 370.040741,126.005272 379.688904,127.120018 
	C381.959900,127.382408 384.162933,128.232651 386.397247,128.812469 
	C386.306427,129.483429 386.215637,130.154388 386.124817,130.825348 
	C384.461273,130.825348 382.797729,130.831421 381.134216,130.824280 
	C373.658875,130.792191 368.399689,134.551727 365.686218,141.155807 
	C363.329498,146.891739 362.010254,153.053940 360.113220,159.836182 
	C359.677643,163.084549 359.361298,165.524506 359.044922,167.964447 
z"/>
<path fill="#F0B28E" opacity="1.000000" stroke="none" 
	d="
M359.028442,168.352814 
	C359.361298,165.524506 359.677643,163.084549 360.070648,160.211746 
	C360.646545,160.595963 361.413544,161.356323 361.600586,162.239487 
	C362.630524,167.101929 363.518707,171.994370 364.455536,176.876526 
	C364.027130,177.102539 363.598724,177.328552 363.170288,177.554565 
	C361.784180,174.616760 360.398041,171.678970 359.028442,168.352814 
z"/>
</svg>