<?xml version="1.0" encoding="UTF-8"?>
<svg version="1.1" xmlns="http://www.w3.org/2000/svg" width="200" height="200">
<path d="M0 0 C66 0 132 0 200 0 C200 66 200 132 200 200 C134 200 68 200 0 200 C0 134 0 68 0 0 Z " fill="#FEFEFD" transform="translate(0,0)"/>
<path d="M0 0 C0.99 0.495 0.99 0.495 2 1 C1.57589844 1.53625 1.15179688 2.0725 0.71484375 2.625 C-14.31396949 22.70745813 -19.51835499 48.50756726 -16.375 73.125 C-14.65370465 81.95121659 -10.91265536 90.25223696 -7.56640625 98.55859375 C-1.58418088 113.62954135 0.82340237 129.35372647 -5 145 C-9.27721259 154.27395628 -15.6161481 160.67001949 -24.75 165.17578125 C-35.54191797 169.12907065 -48.60901047 170.15367482 -59.5 166.0625 C-69.33397792 161.24780623 -77.99831088 153.00029425 -81.8125 142.625 C-83.1368828 137.76391313 -83.28049374 133.0066184 -83.3125 128 C-83.31805908 127.24541504 -83.32361816 126.49083008 -83.3293457 125.71337891 C-83.25688143 120.25688143 -83.25688143 120.25688143 -81 118 C-80.91363281 119.03898437 -80.82726562 120.07796875 -80.73828125 121.1484375 C-79.8488939 130.48980858 -78.92175873 139.14287975 -71.91796875 146.0546875 C-65.10170029 151.65169158 -58.51124833 154.57980779 -49.6875 154.5 C-48.94201904 154.49355469 -48.19653809 154.48710937 -47.4284668 154.48046875 C-40.06900283 154.23757688 -34.55449997 152.42538352 -29.171875 147.23828125 C-23.18771132 140.07761937 -21.39060004 131.54776217 -21.6484375 122.3828125 C-22.77321029 111.55999876 -26.1748122 100.99301454 -29.33666992 90.62036133 C-34.55209213 73.49822793 -34.23878578 53.44843691 -27 37 C-26.50371094 35.81792969 -26.00742188 34.63585938 -25.49609375 33.41796875 C-19.54561285 20.41294182 -10.40292859 9.70940002 0 0 Z " fill="#131C55" transform="translate(152,7)"/>
<path d="M0 0 C0.13526139 2.24834496 0.23210804 4.49902514 0.3125 6.75 C0.37050781 8.00296875 0.42851563 9.2559375 0.48828125 10.546875 C0 14 0 14 -2.484375 16.16796875 C-3.31453125 16.77253906 -4.1446875 17.37710938 -5 18 C-5.85784184 21.07437728 -5.63167283 23.88296027 -5 27 C-2.84337104 29.73725983 -1.4821939 29.92818389 1.9375 30.4375 C5.83940315 29.88008526 7.40973731 28.97118368 10 26 C10.9168022 22.54321553 10.9168022 22.54321553 10 19 C8.44584419 17.93151788 6.89158349 16.86318634 5.3359375 15.796875 C2.21468783 11.59870293 3.63646268 4.97507552 4 0 C10.63315301 -0.38121569 14.04464122 1.79679389 19 6 C25.01104469 12.64971819 26.3728053 17.70355361 26.2734375 26.63671875 C25.74450072 33.14264114 23.51738861 37.91307336 18.75 42.375 C12.60992963 47.05810452 6.51588335 48.66280333 -1.19140625 48.40625 C-8.00094958 47.42128128 -13.26941256 44.40859604 -17.5 39 C-21.98814662 32.52871882 -22.68461569 26.72637711 -22 19 C-20.51115114 11.80598239 -16.29180983 6.35129274 -10.375 2.125 C-6.62772755 0.34997621 -4.19515703 0 0 0 Z " fill="#F78725" transform="translate(100,108)"/>
<path d="M0 0 C0.13526139 2.24834496 0.23210804 4.49902514 0.3125 6.75 C0.37050781 8.00296875 0.42851563 9.2559375 0.48828125 10.546875 C0 14 0 14 -2.4921875 16.16796875 C-3.31976563 16.77253906 -4.14734375 17.37710938 -5 18 C-5.67155114 20.2414024 -5.67155114 20.2414024 -5.4375 22.5625 C-5.41558594 23.32691406 -5.39367187 24.09132812 -5.37109375 24.87890625 C-5.09551245 27.29332373 -5.09551245 27.29332373 -3 30 C-9.09411765 27.85882353 -9.09411765 27.85882353 -11 25 C-10.6875 22.3125 -10.6875 22.3125 -10 20 C-11.98 20.99 -13.96 21.98 -16 23 C-16.99 22.34 -17.98 21.68 -19 21 C-19.77916092 26.02125926 -20.13016601 29.97703996 -19 35 C-22.11164498 31.88835502 -22.17861516 29.03015453 -22.25 24.8125 C-22.14414379 16.77801372 -19.98648324 11.38351768 -14.546875 5.47265625 C-10.07697373 1.21721994 -6.02654843 0 0 0 Z " fill="#F2BB5D" transform="translate(100,108)"/>
<path d="M0 0 C6.63315301 -0.38121569 10.04464122 1.79679389 15 6 C20.02737469 11.56153325 22.14375164 15.7265344 22.1875 23.3125 C22.20167969 24.42238281 22.21585938 25.53226563 22.23046875 26.67578125 C21.99333157 30.0961836 21.22108501 32.80973443 20 36 C18.25222242 32.94315824 17.6882277 30.49951852 17.4375 27 C16.93885375 20.32424607 16.07350665 17.68323691 11 13 C11 13.66 11 14.32 11 15 C11.66 15.33 12.32 15.66 13 16 C12.2575 16.804375 12.2575 16.804375 11.5 17.625 C9.7178318 19.96356801 9.7178318 19.96356801 10.0625 23.0625 C10.041875 24.031875 10.02125 25.00125 10 26 C8 27.875 8 27.875 6 29 C5.34 28.67 4.68 28.34 4 28 C4.66 27.34 5.32 26.68 6 26 C6.66758785 22.62751384 6.66758785 22.62751384 6 19 C4.44584419 17.93151788 2.89158349 16.86318634 1.3359375 15.796875 C-1.78531217 11.59870293 -0.36353732 4.97507552 0 0 Z " fill="#F2B759" transform="translate(104,108)"/>
<path d="M0 0 C0.33 0.66 0.66 1.32 1 2 C1.86625 1.7834375 1.86625 1.7834375 2.75 1.5625 C4.83333333 1.04166667 6.91666667 0.52083333 9 0 C10 3 10 3 10 6 C14.04054794 9.90089767 18.60352976 10.03394006 24 10 C27.47518686 9.20876287 27.47518686 9.20876287 30 8 C30 9.65 30 11.3 30 13 C28.02 13.66 26.04 14.32 24 15 C23.67 14.67 23.34 14.34 23 14 C21.00041636 13.95919217 18.99954746 13.95745644 17 14 C16.690625 15.3921875 16.690625 15.3921875 16.375 16.8125 C15 20 15 20 11.875 21.875 C10.451875 22.431875 10.451875 22.431875 9 23 C9.33 23.66 9.66 24.32 10 25 C5.29999633 23.65714181 2.50354032 21.11490991 0 17 C-2.30222016 11.51096277 -2.11326641 6.76874411 -1 1 C-0.67 0.67 -0.34 0.34 0 0 Z " fill="#F78D2E" transform="translate(81,128)"/>
<path d="M0 0 C0 0.66 0 1.32 0 2 C2.97 2.495 2.97 2.495 6 3 C6.33 2.34 6.66 1.68 7 1 C10.03342882 3.36986627 10.92533178 4.58932481 11.625 8.4375 C11 12 11 12 8.375 14.9375 C4.69578077 17.18591175 3.20277998 17.80478766 -1 17 C-3.875 15.5625 -3.875 15.5625 -6 13 C-6.65802571 9.88153034 -6.63566991 7.12108197 -6 4 C-3.07317073 0 -3.07317073 0 0 0 Z " fill="#FEF7E3" transform="translate(100,122)"/>
<path d="M0 0 C1.07507813 -0.00128906 2.15015625 -0.00257812 3.2578125 -0.00390625 C4.38960937 -0.00003906 5.52140625 0.00382812 6.6875 0.0078125 C7.81929687 0.00394531 8.95109375 0.00007813 10.1171875 -0.00390625 C11.19226563 -0.00261719 12.26734375 -0.00132813 13.375 0 C14.86580078 0.00169189 14.86580078 0.00169189 16.38671875 0.00341797 C18.6875 0.1328125 18.6875 0.1328125 19.6875 1.1328125 C19.72830783 3.13239614 19.73004356 5.13326504 19.6875 7.1328125 C15.80058052 9.07627224 10.96235419 8.31762053 6.6875 8.3203125 C5.66398437 8.33255859 4.64046875 8.34480469 3.5859375 8.35742188 C2.12027344 8.36032227 2.12027344 8.36032227 0.625 8.36328125 C-0.27347656 8.36739014 -1.17195313 8.37149902 -2.09765625 8.37573242 C-4.3125 8.1328125 -4.3125 8.1328125 -6.3125 6.1328125 C-6.5 3.5703125 -6.5 3.5703125 -6.3125 1.1328125 C-4.59682208 -0.58286542 -2.33877265 0.00265425 0 0 Z " fill="#141C51" transform="translate(95.3125,96.8671875)"/>
<path d="M0 0 C1.07507813 -0.00128906 2.15015625 -0.00257812 3.2578125 -0.00390625 C4.38960937 -0.00003906 5.52140625 0.00382812 6.6875 0.0078125 C7.81929687 0.00394531 8.95109375 0.00007813 10.1171875 -0.00390625 C11.19226563 -0.00261719 12.26734375 -0.00132813 13.375 0 C14.86580078 0.00169189 14.86580078 0.00169189 16.38671875 0.00341797 C18.6875 0.1328125 18.6875 0.1328125 19.6875 1.1328125 C19.72830783 3.13239614 19.73004356 5.13326504 19.6875 7.1328125 C15.80058052 9.07627224 10.96235419 8.31762053 6.6875 8.3203125 C5.66398437 8.33255859 4.64046875 8.34480469 3.5859375 8.35742188 C2.12027344 8.36032227 2.12027344 8.36032227 0.625 8.36328125 C-0.27347656 8.36739014 -1.17195313 8.37149902 -2.09765625 8.37573242 C-4.3125 8.1328125 -4.3125 8.1328125 -6.3125 6.1328125 C-6.5 3.5703125 -6.5 3.5703125 -6.3125 1.1328125 C-4.59682208 -0.58286542 -2.33877265 0.00265425 0 0 Z " fill="#101956" transform="translate(95.3125,85.8671875)"/>
<path d="M0 0 C0.33 0 0.66 0 1 0 C1.08636719 1.03898437 1.17273438 2.07796875 1.26171875 3.1484375 C2.15658494 12.54735368 3.03805176 21.39604467 10.328125 28.16015625 C12.49909512 29.87713419 14.68859883 31.47920882 17 33 C16.67 33.66 16.34 34.32 16 35 C14.33333333 35 12.66666667 35 11 35 C10.34 35.99 9.68 36.98 9 38 C3.09054284 31.59808807 -1.11803297 23.85187862 -1.1328125 14.9609375 C-1.13410156 14.21585938 -1.13539062 13.47078125 -1.13671875 12.703125 C-1.13285156 11.93484375 -1.12898438 11.1665625 -1.125 10.375 C-1.12886719 9.59898437 -1.13273437 8.82296875 -1.13671875 8.0234375 C-1.12670133 2.25340266 -1.12670133 2.25340266 0 0 Z " fill="#192156" transform="translate(70,125)"/>
<path d="M0 0 C0.66 0.33 1.32 0.66 2 1 C1.57589844 1.53625 1.15179688 2.0725 0.71484375 2.625 C-3.79947037 8.65731425 -6.82640096 14.69899171 -9.42602539 21.72851562 C-11.39820446 26.71820685 -11.39820446 26.71820685 -14.4609375 28.15234375 C-17.54427932 27.96734324 -18.76393694 27.07042876 -21 25 C-14.69475676 15.96305738 -7.83573938 7.74749907 0 0 Z " fill="#182157" transform="translate(152,7)"/>
<path d="M0 0 C0.8971875 0.309375 0.8971875 0.309375 1.8125 0.625 C1.8125 1.285 1.8125 1.945 1.8125 2.625 C1.1525 2.625 0.4925 2.625 -0.1875 2.625 C-0.1875 3.285 -0.1875 3.945 -0.1875 4.625 C-1.1775 4.625 -2.1675 4.625 -3.1875 4.625 C-2.81276721 12.62329057 -2.81276721 12.62329057 0.8125 19.625 C-5.28161765 17.48382353 -5.28161765 17.48382353 -7.1875 14.625 C-6.875 11.9375 -6.875 11.9375 -6.1875 9.625 C-8.1675 10.615 -10.1475 11.605 -12.1875 12.625 C-13.1775 11.965 -14.1675 11.305 -15.1875 10.625 C-15.8475 11.615 -16.5075 12.605 -17.1875 13.625 C-17.0113342 8.34002591 -17.0113342 8.34002591 -16.1875 5.625 C-13.125 3.125 -13.125 3.125 -10.1875 1.625 C-9.5275 2.945 -8.8675 4.265 -8.1875 5.625 C-7.5275 5.625 -6.8675 5.625 -6.1875 5.625 C-6.084375 5.00625 -5.98125 4.3875 -5.875 3.75 C-4.85895141 0.60948619 -3.30129273 -0.5659359 0 0 Z " fill="#F6AD4A" transform="translate(96.1875,118.375)"/>
<path d="M0 0 C6.76642336 0 6.76642336 0 10.6875 2.8125 C11.43386719 3.33457031 12.18023437 3.85664062 12.94921875 4.39453125 C14.78314397 5.83023271 16.40158338 7.31024529 18 9 C17.67 9.66 17.34 10.32 17 11 C14.03 10.505 14.03 10.505 11 10 C11.33 9.01 11.66 8.02 12 7 C11.01 6.67 10.02 6.34 9 6 C8.34 6.66 7.68 7.32 7 8 C5.68 8 4.36 8 3 8 C3 10.31 3 12.62 3 15 C2.01 14.67 1.02 14.34 0 14 C0 9.38 0 4.76 0 0 Z " fill="#EECF82" transform="translate(104,108)"/>
<path d="M0 0 C0.13526139 2.24834496 0.23210804 4.49902514 0.3125 6.75 C0.37050781 8.00296875 0.42851563 9.2559375 0.48828125 10.546875 C0 14 0 14 -2.46875 16.21875 C-3.3040625 16.8065625 -4.139375 17.394375 -5 18 C-5.89055736 21.64182335 -5.89055736 21.64182335 -6 25 C-6.33 25 -6.66 25 -7 25 C-7 21.7 -7 18.4 -7 15 C-6.01 15 -5.02 15 -4 15 C-4 14.34 -4 13.68 -4 13 C-3.01 13 -2.02 13 -1 13 C-1.18464366 8.65815798 -1.18464366 8.65815798 -3 5 C-3.66 5.66 -4.32 6.32 -5 7 C-5.66 6.34 -6.32 5.68 -7 5 C-7.99 5.33 -8.98 5.66 -10 6 C-10 6.66 -10 7.32 -10 8 C-11.36125 8.6496875 -11.36125 8.6496875 -12.75 9.3125 C-15.43218449 10.70517271 -17.66139605 12.11112757 -20 14 C-17.56742484 8.2502769 -13.61575641 3.73588133 -8 1 C-5.07063657 0.02354552 -3.20826995 0 0 0 Z " fill="#EECC79" transform="translate(100,108)"/>
<path d="M0 0 C6.50313209 -0.46450943 10.4174808 0.67424388 16 4 C15.67 4.99 15.34 5.98 15 7 C14.49210937 6.65066406 13.98421875 6.30132812 13.4609375 5.94140625 C12.77257812 5.48636719 12.08421875 5.03132813 11.375 4.5625 C10.70210937 4.11003906 10.02921875 3.65757813 9.3359375 3.19140625 C6.57224564 1.78183097 4.06292165 1.38176817 1 1 C1.14100857 3.27113803 1.28796755 5.54190725 1.4375 7.8125 C1.51871094 9.07707031 1.59992188 10.34164062 1.68359375 11.64453125 C1.87184547 14.99181893 1.87184547 14.99181893 3 18 C0.69 18 -1.62 18 -4 18 C-3.67 12.39 -3.34 6.78 -3 1 C-2.34 1.33 -1.68 1.66 -1 2 C-0.67 1.34 -0.34 0.68 0 0 Z " fill="#FEFBEA" transform="translate(103,107)"/>
<path d="M0 0 C3 0.25 3 0.25 5 2.25 C5.25 4.75 5.25 4.75 5 7.25 C3 9.25 3 9.25 0 9.5 C-3 9.25 -3 9.25 -5 7.25 C-5.25 4.75 -5.25 4.75 -5 2.25 C-3 0.25 -3 0.25 0 0 Z " fill="#F2A345" transform="translate(102,125.75)"/>
<path d="M0 0 C0.33 0 0.66 0 1 0 C1.13277344 1.07378906 1.26554687 2.14757812 1.40234375 3.25390625 C1.58069564 4.69010833 1.75908295 6.12630601 1.9375 7.5625 C2.02451172 8.26697266 2.11152344 8.97144531 2.20117188 9.69726562 C2.33168945 10.74624023 2.33168945 10.74624023 2.46484375 11.81640625 C2.5510498 12.51523926 2.63725586 13.21407227 2.72607422 13.93408203 C2.98783611 15.90826129 3.30702541 17.87457131 3.62890625 19.83984375 C4 23 4 23 3 26 C3.66 26.33 4.32 26.66 5 27 C4.01 27.33 3.02 27.66 2 28 C-1.7161243 19.48388181 -1.51570671 11.13395922 -1 2 C-0.67 1.34 -0.34 0.68 0 0 Z " fill="#272E56" transform="translate(70,125)"/>
<path d="M0 0 C1.07507813 -0.00128906 2.15015625 -0.00257812 3.2578125 -0.00390625 C4.38960937 -0.00003906 5.52140625 0.00382812 6.6875 0.0078125 C7.81929687 0.00394531 8.95109375 0.00007813 10.1171875 -0.00390625 C11.19226563 -0.00261719 12.26734375 -0.00132813 13.375 0 C14.86580078 0.00169189 14.86580078 0.00169189 16.38671875 0.00341797 C18.6875 0.1328125 18.6875 0.1328125 19.6875 1.1328125 C19.72813832 2.79898365 19.730221 4.46669345 19.6875 6.1328125 C19.0275 4.8128125 18.3675 3.4928125 17.6875 2.1328125 C11.4175 2.1328125 5.1475 2.1328125 -1.3125 2.1328125 C-1.6425 3.4528125 -1.9725 4.7728125 -2.3125 6.1328125 C4.2875 6.4628125 10.8875 6.7928125 17.6875 7.1328125 C17.6875 7.4628125 17.6875 7.7928125 17.6875 8.1328125 C14.06256666 8.19069034 10.43775143 8.2263667 6.8125 8.2578125 C5.77996094 8.27457031 4.74742188 8.29132813 3.68359375 8.30859375 C2.69746094 8.31503906 1.71132812 8.32148437 0.6953125 8.328125 C-0.67149658 8.34383545 -0.67149658 8.34383545 -2.06591797 8.35986328 C-4.3125 8.1328125 -4.3125 8.1328125 -6.3125 6.1328125 C-6.5 3.5703125 -6.5 3.5703125 -6.3125 1.1328125 C-4.59682208 -0.58286542 -2.33877265 0.00265425 0 0 Z " fill="#1B224E" transform="translate(95.3125,85.8671875)"/>
<path d="M0 0 C1.65 0 3.3 0 5 0 C6.5912689 4.873261 7.21192221 8.80790596 7 14 C5.68 14 4.36 14 3 14 C2.49528803 12.23050388 1.99639315 10.45934777 1.5 8.6875 C1.2215625 7.70136719 0.943125 6.71523437 0.65625 5.69921875 C0 3 0 3 0 0 Z " fill="#EA966E" transform="translate(121,181)"/>
<path d="M0 0 C0 1.32 0 2.64 0 4 C-9.41002278 7.44419134 -9.41002278 7.44419134 -14 7 C-14 5.68 -14 4.36 -14 3 C-12.4188708 2.49307308 -10.83498617 1.99473557 -9.25 1.5 C-7.92742188 1.08234375 -7.92742188 1.08234375 -6.578125 0.65625 C-4 0 -4 0 0 0 Z " fill="#DB755B" transform="translate(61,152)"/>
<path d="M0 0 C0 0.66 0 1.32 0 2 C2.97 2.495 2.97 2.495 6 3 C6.33 2.34 6.66 1.68 7 1 C9 2.5625 9 2.5625 11 5 C11.25 8.75 11.25 8.75 11 12 C7.25 13.125 7.25 13.125 5 12 C5.33 11.67 5.66 11.34 6 11 C6.16666667 8.5 6.16666667 8.5 6 6 C5.67 5.67 5.34 5.34 5 5 C3.88625 5.020625 2.7725 5.04125 1.625 5.0625 C-2 5 -2 5 -5 3 C-2.25 0 -2.25 0 0 0 Z " fill="#FEF2D6" transform="translate(100,122)"/>
<path d="M0 0 C-0.15404113 5.08335725 -3.02068432 7.35754718 -6.50390625 10.64453125 C-6.99761719 11.09183594 -7.49132812 11.53914062 -8 12 C-9.32 11.34 -10.64 10.68 -12 10 C-3.78082192 0 -3.78082192 0 0 0 Z " fill="#DA6F53" transform="translate(74,172)"/>
<path d="M0 0 C1.32 0 2.64 0 4 0 C4 4.62 4 9.24 4 14 C2.68 14 1.36 14 0 14 C0 9.38 0 4.76 0 0 Z " fill="#E17A57" transform="translate(94,181)"/>
<path d="M0 0 C4.62 0 9.24 0 14 0 C14 1.32 14 2.64 14 4 C9.38 4 4.76 4 0 4 C0 2.68 0 1.36 0 0 Z " fill="#E29D67" transform="translate(44,129)"/>
<path d="M0 0 C2.49505962 2.49505962 2.35948376 3.67328888 2.625 7.125 C2.69976562 8.03507813 2.77453125 8.94515625 2.8515625 9.8828125 C2.92503906 10.93082031 2.92503906 10.93082031 3 12 C4.96822886 10.03177114 4.66248381 6.65191291 5 4 C5.33 4 5.66 4 6 4 C6.05423638 5.91635217 6.09289963 7.83314925 6.125 9.75 C6.14820313 10.81734375 6.17140625 11.8846875 6.1953125 12.984375 C6.00487687 15.92470106 5.52670104 17.52361878 4 20 C3.67 18.68 3.34 17.36 3 16 C2.01 18.475 2.01 18.475 1 21 C0.34 21 -0.32 21 -1 21 C-0.83628906 20.34644531 -0.67257813 19.69289062 -0.50390625 19.01953125 C0.12848563 15.23008226 0.10696709 11.51509049 0.0625 7.6875 C0.05798828 6.94693359 0.05347656 6.20636719 0.04882812 5.44335938 C0.03712175 3.62887101 0.01918898 1.81442466 0 0 Z " fill="#FCEACB" transform="translate(125,122)"/>
<path d="M0 0 C0.99 0.33 1.98 0.66 3 1 C3.05397335 3.4377963 3.09365616 5.87439685 3.125 8.3125 C3.15013672 9.34793945 3.15013672 9.34793945 3.17578125 10.40429688 C3.21217794 14.17135396 3.14378864 15.78431704 1 19 C0.86722656 18.01257813 0.73445313 17.02515625 0.59765625 16.0078125 C0.42105469 14.72648438 0.24445313 13.44515625 0.0625 12.125 C-0.11152344 10.84882813 -0.28554687 9.57265625 -0.46484375 8.2578125 C-0.81433227 5.12440546 -0.81433227 5.12440546 -2 3 C-1.34 2.01 -0.68 1.02 0 0 Z " fill="#F69E40" transform="translate(122,125)"/>
<path d="M0 0 C3.10380501 0.77595125 5.25002779 1.5268006 8 3 C7.34 4.32 6.68 5.64 6 7 C4.68 7 3.36 7 2 7 C2 9.31 2 11.62 2 14 C1.34 14 0.68 14 0 14 C0 9.38 0 4.76 0 0 Z " fill="#F2C96C" transform="translate(105,109)"/>
<path d="M0 0 C0.66 0.33 1.32 0.66 2 1 C1.52949219 1.65226563 1.05898437 2.30453125 0.57421875 2.9765625 C-2.66443932 7.52275333 -5.71777926 11.8985654 -8 17 C-10 14 -10 14 -11 11 C-7.37 7.37 -3.74 3.74 0 0 Z " fill="#282F5B" transform="translate(152,7)"/>
<path d="M0 0 C0.69738281 0.01353516 1.39476563 0.02707031 2.11328125 0.04101562 C3.82585541 0.0762055 5.53802941 0.13000845 7.25 0.1875 C7.58 1.1775 7.91 2.1675 8.25 3.1875 C1.65 3.1875 -4.95 3.1875 -11.75 3.1875 C-7.36449685 -0.10162736 -5.15390167 -0.18998314 0 0 Z " fill="#CCD1E1" transform="translate(103.75,93.8125)"/>
<path d="M0 0 C0.66 0.33 1.32 0.66 2 1 C2 1.99 2 2.98 2 4 C1.34 4 0.68 4 0 4 C-0.33 4.66 -0.66 5.32 -1 6 C-1 5.34 -1 4.68 -1 4 C-1.82757813 4.32742187 -2.65515625 4.65484375 -3.5078125 4.9921875 C-7.38220092 6.11029959 -10.88832323 6.22543953 -14.875 6.125 C-15.56335938 6.11597656 -16.25171875 6.10695312 -16.9609375 6.09765625 C-18.64077838 6.07432513 -20.32043746 6.03846326 -22 6 C-22 5.34 -22 4.68 -22 4 C-21.16597656 4.04640625 -20.33195312 4.0928125 -19.47265625 4.140625 C-12.68332943 4.35838119 -7.70742932 4.08368554 -1.70703125 0.77734375 C-1.14371094 0.52082031 -0.58039063 0.26429688 0 0 Z " fill="#FDE6CC" transform="translate(116,151)"/>
<path d="M0 0 C2.19696964 3.29545446 2.91799194 6.21297178 4 10 C4.99 11.485 4.99 11.485 6 13 C-0.26221692 10.79976162 -0.26221692 10.79976162 -2 8 C-1.55555556 1.55555556 -1.55555556 1.55555556 0 0 Z " fill="#F9A13F" transform="translate(91,125)"/>
<path d="M0 0 C1.98 0 3.96 0 6 0 C5.67 5.28 5.34 10.56 5 16 C4.67 16 4.34 16 4 16 C4 11.38 4 6.76 4 2 C2.68 2 1.36 2 0 2 C0 1.34 0 0.68 0 0 Z " fill="#FEF0DB" transform="translate(94,179)"/>
<path d="M0 0 C0.33 0 0.66 0 1 0 C1 1.65 1 3.3 1 5 C2.32 5 3.64 5 5 5 C5.33 4.01 5.66 3.02 6 2 C6 3.32 6 4.64 6 6 C5.01 6.33 4.02 6.66 3 7 C3 7.99 3 8.98 3 10 C1.68 10 0.36 10 -1 10 C-0.67 6.7 -0.34 3.4 0 0 Z " fill="#F9F2E8" transform="translate(123,190)"/>
<path d="M0 0 C0.598125 0.20625 1.19625 0.4125 1.8125 0.625 C1.8125 1.285 1.8125 1.945 1.8125 2.625 C1.1525 2.625 0.4925 2.625 -0.1875 2.625 C-0.1875 3.285 -0.1875 3.945 -0.1875 4.625 C-1.1775 4.625 -2.1675 4.625 -3.1875 4.625 C-3.1875 6.275 -3.1875 7.925 -3.1875 9.625 C-4.95212683 6.53690305 -5.1875 5.39187864 -5.1875 1.625 C-2.1875 -0.375 -2.1875 -0.375 0 0 Z " fill="#F6B751" transform="translate(96.1875,118.375)"/>
<path d="M0 0 C3 0.25 3 0.25 5 2.25 C5.125 4.875 5.125 4.875 5 7.25 C4.773125 6.63125 4.54625 6.0125 4.3125 5.375 C2.62070165 2.63589791 1.00755839 2.19975528 -2 1.25 C-2.33 3.56 -2.66 5.87 -3 8.25 C-3.66 7.92 -4.32 7.59 -5 7.25 C-5.125 4.875 -5.125 4.875 -5 2.25 C-3 0.25 -3 0.25 0 0 Z " fill="#E8B26D" transform="translate(102,125.75)"/>
<path d="M0 0 C0.33 0 0.66 0 1 0 C1.05423638 1.91635217 1.09289963 3.83314925 1.125 5.75 C1.14820313 6.81734375 1.17140625 7.8846875 1.1953125 8.984375 C1.00487687 11.92470106 0.52670104 13.52361878 -1 16 C-2.3950848 13.70221327 -3.07438619 12.5207033 -2.6875 9.8125 C-2 8 -2 8 -1 7 C-0.63239269 4.67182036 -0.29758419 2.3381615 0 0 Z " fill="#CCCFDD" transform="translate(130,126)"/>
<path d="M0 0 C2.22984785 1.76529621 2.93915901 2.65233722 3.4375 5.5 C3 8 3 8 1 9.8125 C0.34 10.204375 -0.32 10.59625 -1 11 C-1.66 10.67 -2.32 10.34 -3 10 C-2.34 9.34 -1.68 8.68 -1 8 C-0.54188325 6.02764667 -0.54188325 6.02764667 -0.375 3.875 C-0.25125 2.59625 -0.1275 1.3175 0 0 Z " fill="#EFA350" transform="translate(111,126)"/>
<path d="M0 0 C1.67588141 2.51382212 2.94030311 4.82947288 4.1875 7.5625 C4.55230469 8.34753906 4.91710937 9.13257812 5.29296875 9.94140625 C5.52628906 10.62074219 5.75960937 11.30007812 6 12 C5.67 12.66 5.34 13.32 5 14 C1.77307451 11.84871634 1.58671036 11.63210677 0.8125 8.125 C0.65394531 7.44695312 0.49539062 6.76890625 0.33203125 6.0703125 C0 4 0 4 0 0 Z " fill="#272D57" transform="translate(138,92)"/>
<path d="M0 0 C0.73828125 1.734375 0.73828125 1.734375 1 4 C-0.58203125 6.140625 -0.58203125 6.140625 -2.8125 8.25 C-3.54082031 8.95640625 -4.26914063 9.6628125 -5.01953125 10.390625 C-7 12 -7 12 -9 12 C-9 11.34 -9 10.68 -9 10 C-8.34 10 -7.68 10 -7 10 C-6.67 9.01 -6.34 8.02 -6 7 C-4.33333333 5.66666667 -2.66666667 4.33333333 -1 3 C-0.67 2.01 -0.34 1.02 0 0 Z " fill="#E9996B" transform="translate(73,172)"/>
<path d="M0 0 C1.98 0 3.96 0 6 0 C6 1.32 6 2.64 6 4 C4.02 4 2.04 4 0 4 C0 2.68 0 1.36 0 0 Z " fill="#CE5347" transform="translate(44,129)"/>
<path d="M0 0 C-2 2 -2 2 -4.3828125 2.1953125 C-5.28773437 2.17210937 -6.19265625 2.14890625 -7.125 2.125 C-8.49011719 2.09792969 -8.49011719 2.09792969 -9.8828125 2.0703125 C-10.58148438 2.04710937 -11.28015625 2.02390625 -12 2 C-8.63758153 -1.36241847 -4.39594827 -1.5216744 0 0 Z " fill="#F46C10" transform="translate(112,153)"/>
<path d="M0 0 C0.99 0 1.98 0 3 0 C3.33 1.65 3.66 3.3 4 5 C3.01 5.33 2.02 5.66 1 6 C0.34 5.67 -0.32 5.34 -1 5 C-0.67 3.35 -0.34 1.7 0 0 Z " fill="#F7831D" transform="translate(84,141)"/>
<path d="M0 0 C0.66 0.33 1.32 0.66 2 1 C2 1.99 2 2.98 2 4 C-2.455 4.495 -2.455 4.495 -7 5 C-6.67 4.01 -6.34 3.02 -6 2 C-4.7934375 1.7834375 -4.7934375 1.7834375 -3.5625 1.5625 C-1.07896294 1.25864751 -1.07896294 1.25864751 0 0 Z " fill="#F6C260" transform="translate(113,113)"/>
<path d="M0 0 C1.65 0 3.3 0 5 0 C4.67 1.98 4.34 3.96 4 6 C2.68 6 1.36 6 0 6 C0 4.02 0 2.04 0 0 Z " fill="#F97815" transform="translate(112,145)"/>
<path d="M0 0 C0.66 0 1.32 0 2 0 C2 0.66 2 1.32 2 2 C6.455 1.505 6.455 1.505 11 1 C8.60236815 3.39763185 7.66726502 3.34280586 4.375 3.625 C3.55773438 3.69976562 2.74046875 3.77453125 1.8984375 3.8515625 C1.27195313 3.90054688 0.64546875 3.94953125 0 4 C0 2.68 0 1.36 0 0 Z " fill="#E29871" transform="translate(47,155)"/>
<path d="M0 0 C1.98 0.495 1.98 0.495 4 1 C3.1875 2.9375 3.1875 2.9375 2 5 C1.01 5.33 0.02 5.66 -1 6 C-0.67 4.02 -0.34 2.04 0 0 Z " fill="#F0812B" transform="translate(117,145)"/>
<path d="M0 0 C0.99 0.33 1.98 0.66 3 1 C2.0409375 1.7734375 2.0409375 1.7734375 1.0625 2.5625 C-1.55791681 5.65935623 -1.69389817 8.02067623 -2 12 C-2.33 12 -2.66 12 -3 12 C-3 8.7 -3 5.4 -3 2 C-2.01 2 -1.02 2 0 2 C0 1.34 0 0.68 0 0 Z " fill="#F2BF79" transform="translate(96,121)"/>
<path d="M0 0 C1.5 1 1.5 1 3 3 C3.27345479 5.71846235 3.13491285 8.25677199 3 11 C0.43383368 7.15075052 0.44902324 4.5650696 0 0 Z " fill="#D86447" transform="translate(122,182)"/>
<path d="M0 0 C0.66 0.33 1.32 0.66 2 1 C0.75023244 4.65316671 0.32901247 5.78065836 -3 8 C-2.45276317 4.62537285 -1.9451 2.91765 0 0 Z " fill="#1D2554" transform="translate(142,155)"/>
<path d="M0 0 C0.66 0.33 1.32 0.66 2 1 C-0.475 4.465 -0.475 4.465 -3 8 C-3.99 7.34 -4.98 6.68 -6 6 C-4.02 4.02 -2.04 2.04 0 0 Z " fill="#484A6A" transform="translate(152,7)"/>
<path d="M0 0 C-0.875 4.75 -0.875 4.75 -2 7 C-2.66 6.67 -3.32 6.34 -4 6 C-3.67 4.68 -3.34 3.36 -3 2 C-3.66 1.67 -4.32 1.34 -5 1 C-2 0 -2 0 0 0 Z " fill="#20295C" transform="translate(116,160)"/>
<path d="M0 0 C0 0.99 0 1.98 0 3 C-3.69418201 4.231394 -6.2056261 3.64432764 -10 3 C-10 2.34 -10 1.68 -10 1 C-7.98177083 1.03255208 -5.96354167 1.06510417 -3.9453125 1.09765625 C-1.91814596 1.12649242 -1.91814596 1.12649242 0 0 Z " fill="#E89D52" transform="translate(107,137)"/>
<path d="M0 0 C0.33 0.66 0.66 1.32 1 2 C1.66 2.33 2.32 2.66 3 3 C0 5 0 5 -3 5 C-2.625 3.0625 -2.625 3.0625 -2 1 C-1.34 0.67 -0.68 0.34 0 0 Z " fill="#1A2559" transform="translate(128,167)"/>
<path d="M0 0 C0.99 0.33 1.98 0.66 3 1 C2.6875 2.9375 2.6875 2.9375 2 5 C1.01 5.33 0.02 5.66 -1 6 C-0.67 4.02 -0.34 2.04 0 0 Z " fill="#202558" transform="translate(134,162)"/>
<path d="M0 0 C2.64 0.33 5.28 0.66 8 1 C4.5647952 3.29013653 3.014669 3.17842973 -1 3 C-0.67 2.01 -0.34 1.02 0 0 Z " fill="#E9764D" transform="translate(50,154)"/>
<path d="M0 0 C0.33 0 0.66 0 1 0 C1.28875 1.093125 1.5775 2.18625 1.875 3.3125 C2.81893204 7.04013845 2.81893204 7.04013845 5 10 C2.525 9.01 2.525 9.01 0 8 C0 5.36 0 2.72 0 0 Z " fill="#EDA154" transform="translate(92,128)"/>
</svg>
