<svg xmlns="http://www.w3.org/2000/svg" viewBox="0 0 400 300">
  <defs>
    <linearGradient id="bgGradient" x1="0%" y1="0%" x2="100%" y2="100%">
      <stop offset="0%" style="stop-color:#ffffff;stop-opacity:1" />
      <stop offset="100%" style="stop-color:#f8fafc;stop-opacity:1" />
    </linearGradient>
  </defs>

  <g transform="translate(200, 150)">
    <rect x="-60" y="-80" width="120" height="140" rx="10" 
          fill="#ffffff" stroke="#2563eb" stroke-width="2"/>
    
    <circle cx="0" cy="-40" r="25" fill="#2563eb"/>
    <circle cx="0" cy="-45" r="10" fill="#ffffff"/>
    <path d="M -15 -30 A 15 15 0 0 0 15 -30" fill="#ffffff"/>

    <rect x="-12" y="0" width="24" height="20" rx="4" fill="#1e293b"/>
    <rect x="-6" y="-10" width="12" height="15" rx="2" fill="#1e293b"/>

    <line x1="-40" y1="-60" x2="40" y2="-60" stroke="#e2e8f0" stroke-width="2"/>
    <line x1="-40" y1="30" x2="40" y2="30" stroke="#e2e8f0" stroke-width="2"/>
  </g>

  <g transform="translate(90, 150)">
    <circle cx="0" cy="0" r="20" fill="#64748b"/>
    <circle cx="0" cy="-5" r="8" fill="#ffffff"/>
    <path d="M -10 5 A 10 10 0 0 0 10 5" fill="#ffffff"/>
  </g>

  <g transform="translate(310, 150)">
    <circle cx="0" cy="0" r="20" fill="#64748b"/>
    <rect x="-8" y="-12" width="16" height="24" rx="3" fill="#ffffff"/>
    <rect x="-12" y="-4" width="24" height="8" rx="4" fill="#ffffff"/>
  </g>

  <path d="M 110 150 L 140 150" stroke="#2563eb" stroke-width="2" stroke-dasharray="4"/>
  <path d="M 260 150 L 290 150" stroke="#2563eb" stroke-width="2" stroke-dasharray="4"/>

  <text x="200" y="250" 
        text-anchor="middle" 
        font-family="Arial" 
        font-size="18" 
        fill="#1e293b" 
        font-weight="bold">
    No Data Available
  </text>
</svg>
